<svg width="653" height="498" viewBox="0 0 653 498" fill="none" xmlns="http://www.w3.org/2000/svg">
<g clip-path="url(#clip0_64_331)">
<path d="M586.615 46.488H254.061C252.278 46.488 250.832 47.932 250.832 49.7131V494.775C250.832 496.556 252.278 498 254.061 498H586.615C588.398 498 589.843 496.556 589.843 494.775V49.7131C589.843 47.932 588.398 46.488 586.615 46.488Z" fill="white"/>
<path d="M586.614 498H254.061C253.205 497.999 252.384 497.659 251.779 497.054C251.173 496.45 250.833 495.63 250.832 494.775V49.7129C250.833 48.8578 251.173 48.0381 251.779 47.4335C252.384 46.8289 253.205 46.4888 254.061 46.4878H586.614C587.47 46.4888 588.291 46.8289 588.896 47.4335C589.502 48.0381 589.842 48.8578 589.843 49.7129V494.775C589.842 495.63 589.502 496.45 588.896 497.054C588.291 497.659 587.47 497.999 586.614 498V498ZM254.061 48.1003C253.633 48.1008 253.222 48.2708 252.92 48.5731C252.617 48.8755 252.447 49.2853 252.446 49.7129V494.775C252.447 495.202 252.617 495.612 252.92 495.914C253.222 496.217 253.633 496.387 254.061 496.387H586.614C587.043 496.387 587.453 496.217 587.755 495.914C588.058 495.612 588.228 495.202 588.229 494.775V49.7129C588.228 49.2853 588.058 48.8755 587.755 48.5731C587.453 48.2708 587.043 48.1008 586.614 48.1003H254.061Z" fill="#CACACA"/>
<path d="M538.989 147.572H301.681C300.076 147.572 298.536 146.935 297.401 145.801C296.265 144.667 295.627 143.129 295.627 141.525C295.627 139.921 296.265 138.383 297.401 137.249C298.536 136.115 300.076 135.478 301.681 135.478H538.989C540.595 135.478 542.134 136.115 543.27 137.249C544.405 138.383 545.043 139.921 545.043 141.525C545.043 143.129 544.405 144.667 543.27 145.801C542.134 146.935 540.595 147.572 538.989 147.572Z" fill="#E6E6E6"/>
<path d="M538.989 186.676H301.681C300.076 186.676 298.536 186.039 297.401 184.905C296.265 183.771 295.627 182.233 295.627 180.629C295.627 179.025 296.265 177.487 297.401 176.353C298.536 175.219 300.076 174.582 301.681 174.582H538.989C540.595 174.582 542.134 175.219 543.27 176.353C544.405 177.487 545.043 179.025 545.043 180.629C545.043 182.233 544.405 183.771 543.27 184.905C542.134 186.039 540.595 186.676 538.989 186.676Z" fill="#E6E6E6"/>
<path d="M538.989 225.78H301.681C300.076 225.78 298.536 225.143 297.401 224.009C296.265 222.875 295.627 221.337 295.627 219.733C295.627 218.129 296.265 216.591 297.401 215.457C298.536 214.323 300.076 213.686 301.681 213.686H538.989C540.595 213.686 542.134 214.323 543.27 215.457C544.405 216.591 545.043 218.129 545.043 219.733C545.043 221.337 544.405 222.875 543.27 224.009C542.134 225.143 540.595 225.78 538.989 225.78Z" fill="#E6E6E6"/>
<path d="M538.989 264.884H301.681C300.076 264.884 298.536 264.247 297.401 263.113C296.265 261.979 295.627 260.441 295.627 258.837C295.627 257.234 296.265 255.695 297.401 254.561C298.536 253.427 300.076 252.79 301.681 252.79H538.989C540.595 252.79 542.134 253.427 543.27 254.561C544.405 255.695 545.043 257.234 545.043 258.837C545.043 260.441 544.405 261.979 543.27 263.113C542.134 264.247 540.595 264.884 538.989 264.884Z" fill="#E6E6E6"/>
<path d="M538.989 303.989H301.681C300.076 303.989 298.536 303.351 297.401 302.217C296.265 301.083 295.627 299.545 295.627 297.942C295.627 296.338 296.265 294.8 297.401 293.666C298.536 292.532 300.076 291.895 301.681 291.895H538.989C540.595 291.895 542.134 292.532 543.27 293.666C544.405 294.8 545.043 296.338 545.043 297.942C545.043 299.545 544.405 301.083 543.27 302.217C542.134 303.351 540.595 303.989 538.989 303.989Z" fill="#E6E6E6"/>
<path d="M301.357 222.938C301.212 223.442 301.107 223.958 301.043 224.479L258.981 245.686L249.395 239.438L238.064 252.656L253.958 265.365C255.242 266.391 256.824 266.974 258.468 267.026C260.112 267.078 261.729 266.595 263.075 265.651L306.946 234.885C308.803 235.692 310.862 235.915 312.849 235.525C314.836 235.134 316.657 234.149 318.07 232.699C319.482 231.25 320.42 229.405 320.757 227.41C321.095 225.416 320.817 223.366 319.959 221.533C319.102 219.7 317.706 218.172 315.958 217.151C314.21 216.129 312.192 215.664 310.172 215.817C308.153 215.969 306.228 216.732 304.653 218.004C303.078 219.276 301.929 220.997 301.357 222.938L301.357 222.938Z" fill="#FFB6B6"/>
<path d="M257.602 246.487L243.659 262.955C243.262 263.424 242.769 263.802 242.213 264.063C241.657 264.324 241.051 264.462 240.436 264.468C239.822 264.474 239.214 264.348 238.653 264.098C238.092 263.848 237.591 263.48 237.185 263.019L222.963 246.877C220.573 244.836 219.092 241.932 218.843 238.801C218.594 235.671 219.598 232.569 221.636 230.177C223.673 227.786 226.577 226.298 229.71 226.042C232.844 225.786 235.951 226.782 238.351 228.811L256.591 240.1C257.113 240.423 257.559 240.855 257.899 241.366C258.239 241.878 258.465 242.456 258.561 243.062C258.657 243.668 258.621 244.288 258.455 244.879C258.29 245.47 257.999 246.018 257.602 246.487L257.602 246.487Z" fill="#D62828"/>
<path d="M205.1 487.889H214.996L219.704 449.762H205.099L205.1 487.889Z" fill="#FFB6B6"/>
<path d="M202.576 484.662L222.064 484.661H222.065C225.359 484.662 228.517 485.969 230.846 488.295C233.176 490.621 234.484 493.777 234.484 497.067V497.47L202.576 497.471L202.576 484.662Z" fill="#2F2E41"/>
<path d="M202.871 381.715L205.684 391.191L243.617 384.859L239.464 370.873L202.871 381.715Z" fill="#FFB6B6"/>
<path d="M205.25 378.379L210.792 397.042L210.792 397.043C211.729 400.198 211.372 403.594 209.802 406.486C208.231 409.378 205.575 411.528 202.417 412.464L202.03 412.579L192.957 382.022L205.25 378.379Z" fill="#2F2E41"/>
<path d="M541.026 391.918H383.589C381.371 391.918 379.572 389.21 379.572 385.871C379.572 382.531 381.371 379.824 383.589 379.824H541.026C543.244 379.824 545.043 382.531 545.043 385.871C545.043 389.21 543.244 391.918 541.026 391.918Z" fill="#E6E6E6"/>
<path d="M541.026 426.587H383.589C381.371 426.587 379.572 423.88 379.572 420.54C379.572 417.201 381.371 414.493 383.589 414.493H541.026C543.244 414.493 545.043 417.201 545.043 420.54C545.043 423.88 543.244 426.587 541.026 426.587Z" fill="#E6E6E6"/>
<path d="M589.843 92.9776C615.547 92.9776 636.384 72.1639 636.384 46.4888C636.384 20.8137 615.547 0 589.843 0C564.14 0 543.303 20.8137 543.303 46.4888C543.303 72.1639 564.14 92.9776 589.843 92.9776Z" fill="#D62828"/>
<path d="M570.452 43.4201C569.637 43.4201 568.856 43.7433 568.28 44.3186C567.704 44.894 567.38 45.6743 567.38 46.4879C567.38 47.3016 567.704 48.0819 568.28 48.6572C568.856 49.2326 569.637 49.5558 570.452 49.5558H586.773V65.8578C586.774 66.6701 587.099 67.4485 587.675 68.0223C588.25 68.596 589.03 68.9182 589.843 68.9182C590.657 68.9182 591.437 68.596 592.012 68.0223C592.588 67.4485 592.912 66.6701 592.914 65.8578V49.5558H609.235C610.05 49.5558 610.831 49.2326 611.407 48.6572C611.983 48.0819 612.307 47.3016 612.307 46.4879C612.307 45.6743 611.983 44.894 611.407 44.3186C610.831 43.7433 610.05 43.4201 609.235 43.4201H592.914V27.1173C592.914 26.3037 592.591 25.5235 592.015 24.9482C591.439 24.373 590.658 24.0498 589.843 24.0498C589.029 24.0498 588.248 24.373 587.672 24.9482C587.096 25.5235 586.773 26.3037 586.773 27.1173V43.4201H570.452Z" fill="white"/>
<path d="M305.102 362.217C303.674 364.594 301.657 366.566 299.247 367.941C296.836 369.316 294.112 370.05 291.336 370.071L231.861 389.09L229.142 373.334L265.155 353.815L230.264 328.714L255.827 298.833L302.257 342.06C304.97 344.586 306.733 347.966 307.251 351.635C307.768 355.304 307.01 359.039 305.102 362.217V362.217Z" fill="#2F2E41"/>
<path d="M218.841 469.966H204.156C190.971 379.688 177.55 289.159 217.21 255.369L263.985 262.975L258.002 302.635L231.896 332.515L218.841 469.966Z" fill="#2F2E41"/>
<path d="M261.125 279.332C241.328 292.807 215.756 289.639 205.082 269.56C220.418 243.76 223.646 225.215 211.301 216.749C209.322 209.703 210.061 202.171 213.37 195.642C216.679 189.113 222.319 184.06 229.176 181.481L252.563 191.261C272.419 207.43 276.33 224.944 268.88 243.416L261.125 279.332Z" fill="#D62828"/>
<path d="M653 496.388H0V498H653V496.388Z" fill="#CACACA"/>
<path d="M123.772 459.62C126.775 460.674 130 460.939 133.135 460.387C136.269 459.835 139.209 458.487 141.671 456.47C147.94 451.214 149.904 442.555 151.505 434.54L156.235 410.824L146.332 417.633C139.211 422.532 131.928 427.587 126.997 434.683C122.066 441.778 119.913 451.464 123.875 459.141" fill="#E6E6E6"/>
<path d="M125.302 489.982C124.052 480.91 122.773 471.724 123.649 462.554C124.425 454.411 126.912 446.458 131.975 439.937C134.663 436.482 137.933 433.522 141.639 431.19C142.608 430.58 143.495 432.111 142.532 432.717C136.12 436.765 131.161 442.742 128.369 449.787C125.286 457.622 124.79 466.162 125.322 474.485C125.645 479.518 126.324 484.518 127.011 489.512C127.065 489.737 127.031 489.975 126.916 490.177C126.801 490.379 126.614 490.53 126.392 490.599C126.166 490.661 125.924 490.63 125.72 490.515C125.516 490.399 125.366 490.207 125.303 489.982H125.302Z" fill="#F2F2F2"/>
<path d="M45.8657 476.431C47.3952 478.236 49.3643 479.617 51.5832 480.441C53.8021 481.265 56.196 481.504 58.5343 481.135C64.5347 480.118 69.0565 475.302 73.1012 470.759L85.0675 457.323L76.1491 457.972C69.7361 458.439 63.1601 458.946 57.3251 461.645C51.4901 464.345 46.4622 469.749 46.1135 476.163" fill="#E6E6E6"/>
<path d="M35.5987 495.169C37.7014 490.114 39.8218 484.987 43.0481 480.523C45.8156 476.478 49.6793 473.304 54.187 471.373C56.6189 470.403 59.2016 469.864 61.8188 469.78C62.5017 469.758 62.4977 470.816 61.8188 470.838C57.2861 470.989 52.9184 472.574 49.3456 475.365C45.3832 478.474 42.5428 482.729 40.2973 487.182C38.9396 489.875 37.7773 492.66 36.6198 495.442C36.5794 495.575 36.4903 495.687 36.3705 495.756C36.2508 495.826 36.1091 495.847 35.9741 495.816C35.8388 495.78 35.7235 495.691 35.6533 495.57C35.583 495.449 35.5634 495.305 35.5987 495.169V495.169Z" fill="#F2F2F2"/>
<path d="M134.273 475.427C135.561 477.382 137.332 478.973 139.414 480.046C141.497 481.12 143.821 481.639 146.162 481.555C152.18 481.269 157.198 477.073 161.714 473.089L175.073 461.307L166.232 460.885C159.874 460.581 153.352 460.297 147.295 462.256C141.239 464.214 135.654 468.928 134.547 475.189" fill="#E6E6E6"/>
<path d="M121.778 495.197C127.778 484.59 134.739 472.802 147.176 469.035C150.634 467.991 154.26 467.616 157.859 467.933C158.993 468.03 158.71 469.776 157.578 469.679C151.546 469.179 145.525 470.77 140.53 474.184C135.723 477.453 131.98 481.996 128.812 486.815C126.875 489.767 125.134 492.844 123.395 495.917C122.84 496.899 121.216 496.19 121.778 495.197Z" fill="#F2F2F2"/>
<path d="M637.359 478.666C635.041 479.48 632.553 479.684 630.134 479.258C627.715 478.833 625.446 477.792 623.546 476.236C618.708 472.18 617.191 465.498 615.959 459.31L612.308 441.008L619.951 446.265C625.447 450.045 631.068 453.946 634.873 459.421C638.678 464.897 640.339 472.372 637.282 478.296" fill="#E6E6E6"/>
<path d="M635.249 496.038C635.921 491.147 636.612 486.192 636.141 481.249C635.834 476.84 634.277 472.61 631.651 469.053C630.201 467.19 628.438 465.594 626.439 464.336C625.918 464.008 625.439 464.833 625.955 465.16C629.413 467.343 632.087 470.566 633.593 474.365C635.255 478.59 635.523 483.194 635.236 487.682C635.062 490.396 634.695 493.092 634.326 495.784C634.297 495.906 634.315 496.034 634.377 496.143C634.438 496.252 634.539 496.333 634.659 496.37C634.781 496.402 634.911 496.385 635.02 496.323C635.13 496.261 635.211 496.158 635.246 496.037L635.249 496.038Z" fill="#F2F2F2"/>
<path d="M188.046 295.253C189.281 294.967 190.438 294.413 191.435 293.632C192.433 292.851 193.247 291.86 193.82 290.731C194.392 289.601 194.71 288.36 194.751 287.094C194.792 285.829 194.554 284.57 194.055 283.406L226.021 211.267L207.735 206.666L182.063 279.023C180.161 279.99 178.681 281.621 177.902 283.606C177.123 285.591 177.1 287.792 177.838 289.792C178.575 291.793 180.022 293.454 181.903 294.46C183.785 295.467 185.97 295.749 188.046 295.253V295.253Z" fill="#FFB6B6"/>
<path d="M221.694 224.168L203.909 215.853C203.403 215.616 202.954 215.273 202.593 214.848C202.231 214.422 201.966 213.924 201.815 213.387C201.663 212.849 201.63 212.286 201.716 211.734C201.803 211.183 202.007 210.657 202.316 210.191L213.124 193.886C214.352 191.309 216.552 189.323 219.243 188.363C221.934 187.403 224.896 187.548 227.481 188.765C230.065 189.983 232.061 192.174 233.031 194.859C234.001 197.544 233.866 200.503 232.656 203.089L227.067 221.764C226.907 222.299 226.633 222.793 226.264 223.212C225.896 223.632 225.441 223.967 224.931 224.195C224.421 224.423 223.868 224.539 223.31 224.534C222.751 224.53 222.2 224.405 221.694 224.168H221.694Z" fill="#D62828"/>
<path d="M261.143 176.17H214.327C213.364 176.169 212.441 175.786 211.76 175.106C211.079 174.426 210.696 173.503 210.695 172.541V152.385C210.695 145.221 213.544 138.351 218.615 133.286C223.686 128.22 230.563 125.375 237.735 125.375C244.906 125.375 251.784 128.22 256.855 133.286C261.926 138.351 264.775 145.221 264.775 152.385V172.541C264.774 173.503 264.391 174.426 263.71 175.106C263.029 175.786 262.106 176.169 261.143 176.17V176.17Z" fill="#2F2E41"/>
<path d="M244.408 175.863C255.357 175.863 264.233 166.997 264.233 156.06C264.233 145.124 255.357 136.258 244.408 136.258C233.459 136.258 224.583 145.124 224.583 156.06C224.583 166.997 233.459 175.863 244.408 175.863Z" fill="#FFB6B6"/>
<path d="M271.172 154.4H242.546L242.252 150.295L240.784 154.4H236.376L235.795 146.264L232.886 154.4H224.356V153.997C224.363 148.333 226.618 142.902 230.628 138.896C234.638 134.891 240.075 132.638 245.746 132.631H249.782C255.453 132.638 260.89 134.891 264.9 138.896C268.91 142.902 271.166 148.333 271.172 153.997V154.4Z" fill="#2F2E41"/>
</g>
<defs>
<clipPath id="clip0_64_331">
<rect width="653" height="498" fill="white"/>
</clipPath>
</defs>
</svg>
