<svg width="656" height="377" viewBox="0 0 656 377" fill="none" xmlns="http://www.w3.org/2000/svg">
<g clip-path="url(#clip0_64_254)">
<path d="M338.64 10.7612C341.614 10.7612 344.024 8.35223 344.024 5.38061C344.024 2.40898 341.614 0 338.64 0C335.666 0 333.255 2.40898 333.255 5.38061C333.255 8.35223 335.666 10.7612 338.64 10.7612Z" fill="#F2F2F2"/>
<path d="M338.64 32.2052C341.614 32.2052 344.024 29.7962 344.024 26.8246C344.024 23.8529 341.614 21.444 338.64 21.444C335.666 21.444 333.255 23.8529 333.255 26.8246C333.255 29.7962 335.666 32.2052 338.64 32.2052Z" fill="#F2F2F2"/>
<path d="M361.122 10.7612C364.096 10.7612 366.506 8.35223 366.506 5.38061C366.506 2.40898 364.096 0 361.122 0C358.148 0 355.737 2.40898 355.737 5.38061C355.737 8.35223 358.148 10.7612 361.122 10.7612Z" fill="#F2F2F2"/>
<path d="M361.122 32.2052C364.096 32.2052 366.506 29.7962 366.506 26.8246C366.506 23.8529 364.096 21.444 361.122 21.444C358.148 21.444 355.737 23.8529 355.737 26.8246C355.737 29.7962 358.148 32.2052 361.122 32.2052Z" fill="#F2F2F2"/>
<path d="M383.604 10.7612C386.577 10.7612 388.988 8.35223 388.988 5.38061C388.988 2.40898 386.577 0 383.604 0C380.63 0 378.219 2.40898 378.219 5.38061C378.219 8.35223 380.63 10.7612 383.604 10.7612Z" fill="#F2F2F2"/>
<path d="M383.604 32.2052C386.577 32.2052 388.988 29.7962 388.988 26.8246C388.988 23.8529 386.577 21.444 383.604 21.444C380.63 21.444 378.219 23.8529 378.219 26.8246C378.219 29.7962 380.63 32.2052 383.604 32.2052Z" fill="#F2F2F2"/>
<path d="M383.604 53.6493C386.577 53.6493 388.988 51.2403 388.988 48.2687C388.988 45.297 386.577 42.8881 383.604 42.8881C380.63 42.8881 378.219 45.297 378.219 48.2687C378.219 51.2403 380.63 53.6493 383.604 53.6493Z" fill="#F2F2F2"/>
<path d="M383.604 75.0933C386.577 75.0933 388.988 72.6843 388.988 69.7126C388.988 66.741 386.577 64.332 383.604 64.332C380.63 64.332 378.219 66.741 378.219 69.7126C378.219 72.6843 380.63 75.0933 383.604 75.0933Z" fill="#F2F2F2"/>
<path d="M406.086 10.7612C409.06 10.7612 411.471 8.35223 411.471 5.38061C411.471 2.40898 409.06 0 406.086 0C403.112 0 400.701 2.40898 400.701 5.38061C400.701 8.35223 403.112 10.7612 406.086 10.7612Z" fill="#F2F2F2"/>
<path d="M406.086 32.2052C409.06 32.2052 411.471 29.7962 411.471 26.8246C411.471 23.8529 409.06 21.444 406.086 21.444C403.112 21.444 400.701 23.8529 400.701 26.8246C400.701 29.7962 403.112 32.2052 406.086 32.2052Z" fill="#F2F2F2"/>
<path d="M406.086 53.6493C409.06 53.6493 411.471 51.2403 411.471 48.2687C411.471 45.297 409.06 42.8881 406.086 42.8881C403.112 42.8881 400.701 45.297 400.701 48.2687C400.701 51.2403 403.112 53.6493 406.086 53.6493Z" fill="#F2F2F2"/>
<path d="M406.086 75.0933C409.06 75.0933 411.471 72.6843 411.471 69.7126C411.471 66.741 409.06 64.332 406.086 64.332C403.112 64.332 400.701 66.741 400.701 69.7126C400.701 72.6843 403.112 75.0933 406.086 75.0933Z" fill="#F2F2F2"/>
<path d="M428.568 10.7612C431.542 10.7612 433.953 8.35223 433.953 5.38061C433.953 2.40898 431.542 0 428.568 0C425.594 0 423.183 2.40898 423.183 5.38061C423.183 8.35223 425.594 10.7612 428.568 10.7612Z" fill="#F2F2F2"/>
<path d="M428.568 32.2052C431.542 32.2052 433.953 29.7962 433.953 26.8246C433.953 23.8529 431.542 21.444 428.568 21.444C425.594 21.444 423.183 23.8529 423.183 26.8246C423.183 29.7962 425.594 32.2052 428.568 32.2052Z" fill="#F2F2F2"/>
<path d="M451.05 10.7612C454.024 10.7612 456.435 8.35223 456.435 5.38061C456.435 2.40898 454.024 0 451.05 0C448.076 0 445.665 2.40898 445.665 5.38061C445.665 8.35223 448.076 10.7612 451.05 10.7612Z" fill="#F2F2F2"/>
<path d="M451.05 32.2052C454.024 32.2052 456.435 29.7962 456.435 26.8246C456.435 23.8529 454.024 21.444 451.05 21.444C448.076 21.444 445.665 23.8529 445.665 26.8246C445.665 29.7962 448.076 32.2052 451.05 32.2052Z" fill="#F2F2F2"/>
<path d="M615.438 283.935H575.462C575.462 285.083 534.261 286.015 534.261 286.015C533.615 286.502 533.025 287.06 532.504 287.679C530.94 289.544 530.084 291.902 530.089 294.335V295.999C530.09 298.757 531.187 301.402 533.139 303.352C535.091 305.303 537.738 306.399 540.498 306.4H615.438C618.198 306.397 620.844 305.301 622.795 303.351C624.747 301.401 625.844 298.757 625.846 295.999V294.335C625.843 291.578 624.745 288.935 622.794 286.985C620.842 285.036 618.197 283.939 615.438 283.935V283.935Z" fill="#3F3D56"/>
<path d="M583.792 305.987H572.968V375.877H583.792V305.987Z" fill="#3F3D56"/>
<path d="M614.601 375.497C614.601 376.665 598.198 375.949 577.964 375.949C557.729 375.949 541.326 376.665 541.326 375.497C541.326 374.328 557.729 365.06 577.964 365.06C598.198 365.06 614.601 374.328 614.601 375.497Z" fill="#3F3D56"/>
<path d="M523.833 366.304L513.624 366.304L508.767 326.959L523.834 326.96L523.833 366.304Z" fill="#FFB8B8"/>
<path d="M506.332 363.389H526.019V375.775H493.936C493.936 372.49 495.242 369.34 497.567 367.017C499.891 364.694 503.044 363.389 506.332 363.389V363.389Z" fill="#2F2E41"/>
<path d="M507.897 360.611L498.157 357.557L505.312 318.564L519.687 323.072L507.897 360.611Z" fill="#FFB8B8"/>
<path d="M492.073 352.594L510.858 358.485L507.146 370.303L476.535 360.704C477.022 359.152 477.81 357.711 478.855 356.464C479.9 355.216 481.18 354.186 482.623 353.433C484.066 352.68 485.643 352.219 487.265 352.075C488.886 351.931 490.52 352.107 492.073 352.594V352.594Z" fill="#2F2E41"/>
<path d="M588.098 277.115C587.863 275.132 587.439 273.177 586.833 271.274L584.926 268.878L579.963 262.654L579.747 262.663C579.38 262.679 577.856 262.762 575.5 262.946H575.475C574.018 263.062 572.236 263.212 570.213 263.403C569.68 263.461 569.122 263.511 568.547 263.57V272.256H578.956C579.461 272.257 579.95 272.441 580.33 272.775C580.71 273.108 580.955 273.569 581.021 274.07C581.029 274.161 581.037 274.244 581.037 274.336C581.037 274.887 580.818 275.416 580.427 275.807C580.037 276.197 579.508 276.416 578.956 276.416H518.504C517.733 276.927 516.994 277.483 516.289 278.08C514.159 279.727 512.624 282.023 511.917 284.62C508.387 300.129 501.95 329.05 500.052 337.545C499.914 338.185 499.945 338.85 500.142 339.474C500.339 340.098 500.696 340.661 501.176 341.106C501.53 341.436 501.946 341.693 502.4 341.863L509.911 344.675C510.219 344.789 510.541 344.865 510.868 344.9C510.91 344.9 510.943 344.908 510.985 344.908C511.062 344.915 511.14 344.918 511.218 344.917C511.977 344.914 512.718 344.682 513.344 344.251C513.969 343.821 514.45 343.212 514.723 342.504L520.652 326.961L529.787 302.999L533.4 293.522C537.588 294.504 572.727 302.275 584.493 289.753C585.653 288.52 586.569 287.077 587.191 285.502C588.181 282.824 588.493 279.942 588.098 277.115Z" fill="#2F2E41"/>
<path d="M598.29 279.378C598.107 278.638 597.899 277.872 597.657 277.098L590.788 268.479L590.571 268.487C590.138 268.512 588.081 268.62 584.926 268.878C581.345 269.177 576.341 269.66 570.72 270.417C570.554 270.434 570.379 270.459 570.212 270.484C569.663 270.559 569.105 270.633 568.547 270.717V272.256H578.955C579.461 272.257 579.95 272.441 580.33 272.775C580.709 273.108 580.955 273.569 581.021 274.07C581.029 274.161 581.037 274.244 581.037 274.336C581.037 274.888 580.818 275.416 580.427 275.807C580.037 276.197 579.507 276.416 578.955 276.416H542.168C540.561 276.94 539.012 277.489 537.53 278.08C529.753 281.159 523.933 285.194 522.742 290.444C522.342 292.208 521.901 294.146 521.435 296.21C519.703 303.881 517.596 313.275 515.689 321.811V321.82C515.298 323.583 514.907 325.297 514.532 326.961C512.941 334.117 511.593 340.182 510.876 343.369C510.86 343.46 510.843 343.544 510.826 343.635V343.652C510.743 344.296 510.823 344.952 511.06 345.557L511.068 345.565V345.574C511.297 346.154 511.669 346.666 512.15 347.063C512.472 347.328 512.835 347.539 513.225 347.687L520.735 350.499C521.153 350.656 521.596 350.737 522.042 350.741C522.668 350.742 523.284 350.585 523.833 350.283C524.62 349.857 525.228 349.163 525.548 348.328L541.718 305.928L544.225 299.347C548.413 300.328 583.552 308.091 595.317 295.577C597.642 293.064 598.968 289.789 599.048 286.367C599.13 284.013 598.875 281.66 598.29 279.378V279.378Z" fill="#2F2E41"/>
<path d="M597.366 205.977C597.233 205.819 597.091 205.661 596.941 205.511C594.723 203.181 591.985 201.409 588.95 200.341C585.915 199.272 582.67 198.937 579.48 199.362C576.698 199.727 573.942 200.269 571.228 200.985C567.724 201.885 564.515 203.683 561.919 206.201C559.897 208.161 558.304 210.518 557.242 213.125C556.18 215.732 555.671 218.531 555.749 221.344C555.782 222.484 555.79 223.649 555.774 224.83C555.774 225.38 555.766 225.937 555.758 226.495H563.968C564.324 226.493 564.679 226.535 565.025 226.619C566.027 226.859 566.919 227.428 567.558 228.235C568.197 229.043 568.545 230.041 568.547 231.071V269.776C569.105 269.934 569.663 270.093 570.213 270.259C570.387 270.317 570.554 270.367 570.72 270.417C570.912 270.475 571.103 270.534 571.287 270.592C572.977 271.116 574.628 271.671 576.241 272.256H578.956C579.461 272.256 579.95 272.441 580.33 272.774C580.709 273.108 580.955 273.568 581.021 274.07C581.587 274.294 582.136 274.519 582.677 274.744C584.601 275.542 586.424 276.341 588.098 277.115C590.355 278.146 592.362 279.128 594.044 279.985C594.572 280.255 595.157 280.397 595.75 280.401C596.53 280.399 597.288 280.148 597.915 279.686C598.046 279.59 598.171 279.487 598.29 279.378C598.736 278.96 599.072 278.441 599.271 277.864C599.47 277.286 599.525 276.669 599.431 276.066C598.571 269.531 598.32 262.929 598.681 256.347C598.914 250.815 599.414 245.14 600.064 239.657C600.413 236.687 600.805 233.775 601.213 230.971C601.604 228.292 602.021 225.721 602.429 223.291C602.964 220.21 602.786 217.048 601.908 214.047C601.031 211.046 599.477 208.285 597.366 205.977Z" fill="#D62828"/>
<path d="M563.235 206.659C562.808 206.476 562.368 206.323 561.919 206.201C559.7 205.604 557.341 205.825 555.271 206.822C553.201 207.82 551.559 209.528 550.645 211.635L544.924 224.83L544.208 226.494H563.968C564.324 226.493 564.679 226.535 565.025 226.619L565.691 225.08L568.223 219.239C569.228 216.91 569.268 214.277 568.333 211.918C567.397 209.56 565.564 207.668 563.235 206.659V206.659Z" fill="#D62828"/>
<path d="M581.001 192.865C592.295 192.865 601.452 183.716 601.452 172.43C601.452 161.144 592.295 151.995 581.001 151.995C569.706 151.995 560.549 161.144 560.549 172.43C560.549 183.716 569.706 192.865 581.001 192.865Z" fill="#FFB8B8"/>
<path d="M601.213 230.971L589.539 231.287L588.69 239.482L588.498 241.379L570.213 249.583L568.547 250.332V264.917L570.213 264.443L575.475 262.945H575.5L598.682 256.347L598.948 256.273C600.821 255.732 602.47 254.602 603.649 253.051C604.828 251.499 605.475 249.609 605.493 247.661L605.551 237.985L605.601 230.854L601.213 230.971Z" fill="#FFB8B8"/>
<path d="M605.01 214.763C604.933 213.509 604.609 212.282 604.058 211.152C603.506 210.023 602.737 209.013 601.795 208.181C599.892 206.5 597.399 205.642 594.864 205.798C592.329 205.954 589.959 207.109 588.277 209.01C586.594 210.912 585.736 213.403 585.892 215.936L587.166 236.704C587.2 237.25 587.355 237.782 587.618 238.263C587.881 238.743 588.247 239.159 588.69 239.483C589.394 240.007 590.262 240.264 591.138 240.206L600.064 239.657L602.77 239.491C603.263 239.467 603.746 239.343 604.19 239.127C604.633 238.911 605.029 238.607 605.352 238.234C605.423 238.155 605.49 238.072 605.551 237.985C606.081 237.277 606.34 236.404 606.284 235.522L605.01 214.763Z" fill="#D62828"/>
<path d="M571.287 270.592H570.213V270.484C569.663 270.558 569.105 270.633 568.548 270.717V272.256H576.241C574.626 271.673 572.974 271.119 571.287 270.592ZM571.287 270.592H570.213V270.484C569.663 270.558 569.105 270.633 568.548 270.717V272.256H576.241C574.626 271.673 572.974 271.119 571.287 270.592ZM578.956 270.592H570.213V231.071C570.21 229.718 569.767 228.402 568.952 227.322C568.137 226.241 566.992 225.455 565.691 225.08C565.132 224.912 564.552 224.828 563.968 224.83H489.86C488.205 224.832 486.617 225.49 485.447 226.66C484.276 227.83 483.617 229.416 483.615 231.071V271.84C483.616 273.495 484.274 275.081 485.445 276.252C486.616 277.422 488.204 278.079 489.86 278.08H578.956C579.878 278.078 580.768 277.737 581.454 277.122C582.141 276.506 582.576 275.66 582.678 274.744C582.695 274.608 582.703 274.472 582.703 274.336C582.701 273.343 582.306 272.392 581.604 271.69C580.901 270.988 579.949 270.593 578.956 270.592H578.956ZM581.038 274.336C581.037 274.887 580.818 275.416 580.428 275.806C580.037 276.196 579.508 276.416 578.956 276.416H489.86C488.646 276.415 487.481 275.933 486.623 275.075C485.764 274.217 485.281 273.053 485.281 271.84V231.071C485.281 229.857 485.764 228.694 486.623 227.836C487.481 226.978 488.646 226.495 489.86 226.494H563.968C564.324 226.493 564.679 226.535 565.025 226.619C566.027 226.858 566.919 227.428 567.558 228.235C568.197 229.042 568.546 230.041 568.548 231.071V272.256H578.956C579.462 272.256 579.95 272.441 580.33 272.774C580.71 273.108 580.955 273.568 581.021 274.07C581.029 274.161 581.038 274.244 581.038 274.336H581.038ZM571.287 270.592H570.213V270.484C569.663 270.558 569.105 270.633 568.548 270.717V272.256H576.241C574.626 271.673 572.974 271.119 571.287 270.592Z" fill="#3F3D56"/>
<path d="M526.911 256.449C529.67 256.449 531.907 254.214 531.907 251.456C531.907 248.699 529.67 246.464 526.911 246.464C524.152 246.464 521.915 248.699 521.915 251.456C521.915 254.214 524.152 256.449 526.911 256.449Z" fill="#D62828"/>
<path d="M576.634 164.324C571.884 168.564 565.515 173.115 559.698 170.009C555.879 167.969 554.179 163.496 555.071 159.261C556.675 151.646 563.263 147.532 569.642 144.206C577.934 139.882 587.085 136.111 596.371 137.235C605.656 138.359 614.729 146.026 614.29 155.362C613.938 162.87 607.802 169.874 609.744 177.135C611.699 184.443 620.576 187.273 628.137 187.645C635.698 188.017 644.022 187.373 650.02 191.988C657.671 197.875 657.549 210.186 652.102 218.154C646.655 226.122 637.456 230.606 628.421 234.014C616.451 238.53 603.294 241.793 590.937 238.473C578.581 235.153 567.764 223.308 569.576 210.651C570.342 205.305 573.157 200.506 575.873 195.838C578.589 191.169 581.322 186.3 581.892 180.93C582.367 176.455 580.945 171.515 577.641 168.632C577.043 168.13 576.62 167.451 576.432 166.694C576.244 165.937 576.301 165.139 576.595 164.416L576.634 164.324Z" fill="#2F2E41"/>
<path d="M0.991393 377H644.89C645.153 377 645.405 376.896 645.591 376.71C645.777 376.524 645.881 376.272 645.881 376.009C645.881 375.746 645.777 375.495 645.591 375.309C645.405 375.123 645.153 375.019 644.89 375.019H0.991393C0.860952 375.018 0.731723 375.044 0.611103 375.093C0.490483 375.143 0.380854 375.216 0.288484 375.308C0.196115 375.4 0.122826 375.509 0.0728207 375.629C0.0228158 375.75 -0.00292969 375.879 -0.00292969 376.009C-0.00292969 376.14 0.0228158 376.269 0.0728207 376.389C0.122826 376.509 0.196115 376.619 0.288484 376.711C0.380854 376.803 0.490483 376.876 0.611103 376.925C0.731723 376.975 0.860952 377 0.991393 377V377Z" fill="#3F3D56"/>
<path d="M33.665 294.335V295.999C33.6674 298.757 34.7648 301.401 36.7162 303.351C38.6677 305.301 41.3137 306.397 44.0734 306.4H119.014C121.774 306.399 124.421 305.303 126.372 303.352C128.324 301.402 129.421 298.757 129.422 295.999V294.335C129.427 291.902 128.572 289.544 127.007 287.679C126.486 287.06 125.897 286.502 125.25 286.015C125.25 286.015 84.0497 285.083 84.0497 283.935H44.0734C41.3141 283.939 38.6689 285.036 36.7178 286.985C34.7667 288.935 33.6689 291.578 33.665 294.335V294.335Z" fill="#3F3D56"/>
<path d="M75.7188 375.877H86.5435L86.5435 305.987H75.7188L75.7188 375.877Z" fill="#3F3D56"/>
<path d="M44.9097 375.497C44.9097 376.665 61.3128 375.949 81.5471 375.949C101.781 375.949 118.185 376.665 118.185 375.497C118.185 374.328 101.781 365.06 81.5471 365.06C61.3128 365.06 44.9097 374.328 44.9097 375.497Z" fill="#3F3D56"/>
<path d="M136.167 366.938H146.375L151.231 327.593L136.165 327.594L136.167 366.938Z" fill="#A0616A"/>
<path d="M166.063 376.408L133.98 376.41L133.979 364.023L153.667 364.023C156.954 364.022 160.107 365.327 162.432 367.65C164.757 369.973 166.063 373.123 166.063 376.408L166.063 376.408Z" fill="#2F2E41"/>
<path d="M152.102 361.245L161.842 358.191L154.688 319.198L140.312 323.706L152.102 361.245Z" fill="#A0616A"/>
<path d="M183.464 361.338L152.853 370.937L149.141 359.119L167.926 353.228C171.062 352.245 174.462 352.547 177.376 354.067C180.29 355.588 182.48 358.203 183.464 361.338L183.464 361.338Z" fill="#2F2E41"/>
<path d="M145.272 343.136L126.598 294.154C122.408 295.137 87.2737 302.905 75.5062 290.386C71.4733 286.095 70.6868 279.879 73.1683 271.908L80.0358 263.285L80.2493 263.297C82.8459 263.433 143.895 266.852 148.08 285.253C151.608 300.765 158.052 329.687 159.943 338.182C160.135 339.062 160.003 339.982 159.573 340.773C159.143 341.565 158.443 342.176 157.6 342.495L150.09 345.309C149.671 345.466 149.228 345.547 148.781 345.547C148.021 345.547 147.278 345.316 146.652 344.886C146.025 344.455 145.544 343.845 145.272 343.136V343.136Z" fill="#2F2E41"/>
<path d="M134.448 348.96L115.773 299.978C111.583 300.961 76.449 308.729 64.6814 296.21C60.6486 291.919 59.8621 285.703 62.3436 277.733L69.2111 269.109L69.4246 269.121C72.0212 269.257 133.07 272.676 137.255 291.077C140.783 306.589 147.227 335.511 149.118 344.006C149.31 344.886 149.179 345.806 148.749 346.598C148.319 347.389 147.618 348 146.775 348.319L139.265 351.133C138.846 351.29 138.403 351.371 137.956 351.371C137.196 351.371 136.454 351.14 135.827 350.71C135.201 350.279 134.72 349.669 134.448 348.96V348.96Z" fill="#2F2E41"/>
<path d="M117.65 253.928C114.882 253.927 112.162 253.208 109.756 251.841C107.35 250.475 105.34 248.507 103.924 246.131L97.9932 236.092L112.09 228.393L118.075 236.594L158.687 232.318C158.885 231.961 159.108 231.618 159.353 231.291C160.132 230.267 161.119 229.418 162.248 228.799C163.378 228.181 164.625 227.807 165.909 227.702C167.198 227.592 168.496 227.758 169.716 228.19C170.936 228.623 172.049 229.311 172.98 230.208C174.474 231.64 175.44 233.533 175.721 235.582C176.002 237.63 175.582 239.713 174.529 241.494C173.87 242.603 172.985 243.56 171.93 244.303C170.875 245.047 169.675 245.559 168.408 245.806C167.141 246.054 165.836 246.031 164.579 245.74C163.322 245.448 162.14 244.895 161.112 244.115C160.874 243.933 160.645 243.738 160.427 243.533L121.529 253.442C120.261 253.765 118.958 253.929 117.65 253.928V253.928Z" fill="#A0616A"/>
<path d="M62.0799 280.319C61.5178 279.914 61.0789 279.362 60.8116 278.723C60.5443 278.085 60.4592 277.385 60.5656 276.701C62.8825 261.439 60.2167 239.577 57.5723 223.923C57.031 220.747 57.2417 217.489 58.1874 214.409C59.1331 211.329 60.7875 208.513 63.0182 206.187C65.2489 203.86 67.9939 202.088 71.0331 201.013C74.0724 199.937 77.3215 199.588 80.5202 199.993C83.3031 200.36 86.06 200.903 88.7743 201.619V201.619C93.2829 202.753 97.271 205.387 100.083 209.087C102.895 212.786 104.363 217.332 104.247 221.977C103.852 237.081 106.921 255.928 108.259 263.329C108.35 263.838 108.336 264.359 108.216 264.862C108.097 265.364 107.875 265.837 107.565 266.25C107.261 266.659 106.874 267 106.43 267.25C105.986 267.501 105.495 267.656 104.987 267.706C90.1591 269.218 74.1684 276.444 65.9563 280.616C65.4286 280.888 64.8436 281.031 64.2498 281.033C63.469 281.031 62.7093 280.781 62.0799 280.319Z" fill="#CCCCCC"/>
<path d="M102.107 240.955C101.648 240.775 101.23 240.506 100.877 240.163C100.523 239.821 100.241 239.412 100.047 238.96L91.7773 219.871C91.2766 218.718 91.0083 217.477 90.9876 216.22C90.967 214.963 91.1944 213.715 91.657 212.546C92.1196 211.376 92.8082 210.31 93.6835 209.407C94.5588 208.504 95.6037 207.782 96.7583 207.283C97.9129 206.783 99.1547 206.516 100.413 206.497C101.671 206.477 102.92 206.705 104.09 207.168C105.259 207.632 106.326 208.321 107.229 209.196C108.132 210.071 108.854 211.116 109.353 212.27L117.622 231.359C118.016 232.27 118.031 233.3 117.666 234.223C117.3 235.146 116.583 235.886 115.672 236.282L104.974 240.909C104.523 241.106 104.037 241.211 103.545 241.219C103.053 241.227 102.564 241.137 102.107 240.955H102.107Z" fill="#CCCCCC"/>
<path d="M78.9981 193.499C90.293 193.499 99.4493 184.35 99.4493 173.064C99.4493 161.778 90.293 152.628 78.9981 152.628C67.7032 152.628 58.5469 161.778 58.5469 173.064C58.5469 184.35 67.7032 193.499 78.9981 193.499Z" fill="#A0616A"/>
<path d="M66.6392 191.219C66.3495 191.553 65.9957 191.826 65.5987 192.021C65.2017 192.216 64.7695 192.33 64.3278 192.355C63.886 192.381 63.4437 192.317 63.0269 192.169C62.6101 192.02 62.2273 191.79 61.9012 191.491C57.341 187.803 53.7242 183.083 51.3494 177.722C48.6906 171.39 48.301 163.662 51.3269 157.726C53.8849 152.708 58.4767 149.514 63.0609 146.904C64.8182 145.797 66.744 144.984 68.7628 144.496C69.7825 144.264 70.8393 144.249 71.8653 144.451C72.8913 144.652 73.8636 145.066 74.7197 145.666C75.6281 146.356 76.3312 147.281 76.7534 148.34C77.1756 149.4 77.301 150.554 77.1162 151.679C79.213 148.919 82.0399 146.799 85.2781 145.559C87.2649 144.704 89.4847 144.556 91.5679 145.138C94.5118 146.119 96.6909 149.09 97.9035 152.281C98.8841 154.725 99.2433 157.373 98.9489 159.989C98.8205 161.238 98.4391 162.448 97.828 163.546C97.2169 164.643 96.3888 165.604 95.3941 166.372C92.9928 168.027 89.8991 167.859 87.1064 167.127C84.3138 166.394 81.6034 165.151 78.762 164.805C75.9207 164.459 72.7716 165.21 71.0787 167.742C69.8866 169.525 69.6055 171.875 69.3622 174.114L68.097 185.761C68.0076 187.427 67.6483 189.068 67.0332 190.62C66.9291 190.836 66.7966 191.038 66.6392 191.219V191.219Z" fill="#2F2E41"/>
<path d="M140.611 317.08H107.411C106.873 317.082 106.342 316.961 105.857 316.726C105.373 316.492 104.949 316.15 104.617 315.727C104.278 315.298 104.041 314.797 103.924 314.263C103.808 313.729 103.815 313.175 103.945 312.644C107.051 299.646 107.05 286.1 103.945 273.102C103.815 272.571 103.808 272.018 103.924 271.484C104.041 270.949 104.278 270.449 104.617 270.02C104.949 269.597 105.373 269.255 105.857 269.021C106.342 268.786 106.873 268.665 107.411 268.667H140.611C141.46 268.669 142.28 268.971 142.926 269.521C143.572 270.07 144.002 270.831 144.14 271.667C146.305 285.722 146.305 300.025 144.14 314.08C144.002 314.916 143.572 315.677 142.926 316.226C142.28 316.776 141.46 317.078 140.611 317.08V317.08Z" fill="#CCCCCC"/>
<path d="M115.129 286.702V285.727C115.13 285.065 115.394 284.431 115.862 283.963C116.33 283.495 116.965 283.232 117.627 283.231H135.05C135.712 283.232 136.347 283.495 136.815 283.963C137.284 284.431 137.547 285.065 137.548 285.727V286.702C137.547 287.364 137.284 287.999 136.815 288.466C136.347 288.934 135.712 289.198 135.05 289.198H117.627C116.965 289.198 116.33 288.934 115.862 288.466C115.394 287.999 115.13 287.364 115.129 286.702V286.702Z" fill="white"/>
<path d="M115.129 296.973V295.998C115.13 295.336 115.394 294.702 115.862 294.234C116.33 293.766 116.965 293.503 117.627 293.502H135.05C135.712 293.503 136.347 293.766 136.815 294.234C137.284 294.702 137.547 295.336 137.548 295.998V296.973C137.547 297.635 137.284 298.27 136.815 298.738C136.347 299.206 135.712 299.469 135.05 299.47H117.627C116.965 299.469 116.33 299.206 115.862 298.738C115.394 298.27 115.13 297.635 115.129 296.973Z" fill="white"/>
<path d="M125.84 256.963C125.495 256.527 125.254 256.018 125.136 255.475C125.017 254.932 125.024 254.37 125.156 253.83C128.313 240.618 128.313 226.85 125.156 213.638C125.024 213.098 125.017 212.535 125.136 211.992C125.254 211.449 125.495 210.941 125.84 210.505C126.177 210.075 126.609 209.728 127.101 209.489C127.593 209.251 128.133 209.128 128.68 209.13H162.425C163.288 209.132 164.121 209.439 164.778 209.997C165.435 210.556 165.872 211.329 166.011 212.179C168.213 226.465 168.213 241.003 166.011 255.289C165.872 256.139 165.435 256.912 164.778 257.471C164.121 258.029 163.288 258.336 162.425 258.338H128.68C128.133 258.34 127.593 258.217 127.101 257.979C126.609 257.74 126.177 257.393 125.84 256.963Z" fill="#D62828"/>
<path d="M155.913 227.286H138.136C137.474 227.285 136.839 227.022 136.371 226.554C135.902 226.086 135.639 225.452 135.638 224.79V223.73C135.639 223.068 135.902 222.434 136.371 221.966C136.839 221.498 137.474 221.235 138.136 221.234H155.913C156.575 221.235 157.21 221.498 157.679 221.966C158.147 222.434 158.41 223.068 158.411 223.73V224.79C158.41 225.452 158.147 226.086 157.679 226.554C157.21 227.022 156.575 227.285 155.913 227.286V227.286Z" fill="white"/>
<path d="M155.913 237.726H138.136C137.474 237.725 136.839 237.462 136.371 236.994C135.902 236.526 135.639 235.892 135.638 235.23V234.17C135.639 233.508 135.902 232.874 136.371 232.406C136.839 231.938 137.474 231.675 138.136 231.674H155.913C156.575 231.675 157.21 231.938 157.679 232.406C158.147 232.874 158.41 233.508 158.411 234.17V235.23C158.41 235.892 158.147 236.526 157.679 236.994C157.21 237.462 156.575 237.725 155.913 237.726V237.726Z" fill="white"/>
<path d="M110.357 275.266C109.141 274.842 108.028 274.166 107.09 273.283C106.153 272.401 105.412 271.331 104.916 270.143C104.801 269.866 104.702 269.583 104.617 269.295L61.05 256.904C59.1778 256.364 57.5298 255.235 56.3507 253.684C55.1715 252.134 54.524 250.245 54.5043 248.298L54.3979 231.49L70.4567 231.919L71.5033 242.015L108.757 258.728C109.108 258.519 109.473 258.334 109.85 258.175H109.85C111.222 257.6 112.714 257.368 114.196 257.498C115.678 257.628 117.107 258.116 118.358 258.921C119.609 259.726 120.645 260.823 121.377 262.118C122.109 263.413 122.514 264.866 122.558 266.352C122.602 267.838 122.284 269.313 121.63 270.648C120.976 271.984 120.007 273.141 118.805 274.018C117.604 274.896 116.207 275.468 114.735 275.685C113.263 275.903 111.76 275.759 110.357 275.266V275.266Z" fill="#A0616A"/>
<path d="M54.6477 238.869C54.3206 238.501 54.0698 238.072 53.9097 237.607C53.7497 237.142 53.6836 236.649 53.7152 236.158L54.9925 215.397C55.0677 214.142 55.3899 212.913 55.9408 211.782C56.4916 210.651 57.2601 209.64 58.2025 208.806C59.1449 207.972 60.2427 207.332 61.4329 206.922C62.6231 206.513 63.8825 206.341 65.139 206.419C66.3954 206.496 67.6243 206.82 68.7553 207.372C69.8863 207.925 70.8972 208.694 71.7302 209.637C72.5632 210.58 73.2019 211.678 73.6098 212.868C74.0177 214.058 74.1868 215.317 74.1073 216.572L72.8302 237.334C72.768 238.324 72.3151 239.25 71.5709 239.907C70.8267 240.565 69.852 240.9 68.8605 240.841L57.2251 240.126C56.7336 240.097 56.2528 239.971 55.8103 239.755C55.3679 239.54 54.9728 239.238 54.6477 238.869H54.6477Z" fill="#CCCCCC"/>
<path d="M241.909 127.353H173.63C171.643 127.35 169.738 126.561 168.333 125.157C166.928 123.753 166.138 121.85 166.136 119.865V45.8144C166.138 43.8291 166.928 41.9258 168.333 40.5219C169.738 39.1181 171.643 38.3284 173.63 38.3262H241.909C243.896 38.3284 245.8 39.1181 247.205 40.5219C248.61 41.9258 249.4 43.8291 249.403 45.8144V119.865C249.4 121.85 248.61 123.753 247.205 125.157C245.8 126.561 243.896 127.35 241.909 127.353V127.353ZM173.63 39.9902C172.084 39.9919 170.603 40.6061 169.51 41.698C168.417 42.7899 167.803 44.2703 167.801 45.8144V119.865C167.803 121.409 168.417 122.889 169.51 123.981C170.603 125.073 172.084 125.687 173.63 125.689H241.909C243.454 125.687 244.936 125.073 246.028 123.981C247.121 122.889 247.736 121.409 247.737 119.865V45.8144C247.736 44.2703 247.121 42.7899 246.028 41.698C244.936 40.6061 243.454 39.992 241.909 39.9902H173.63Z" fill="#3F3D56"/>
<path d="M366.81 127.353H298.531C296.544 127.35 294.639 126.561 293.234 125.157C291.829 123.753 291.039 121.85 291.037 119.865V45.8144C291.039 43.8291 291.829 41.9258 293.234 40.5219C294.639 39.1181 296.544 38.3284 298.531 38.3262H366.81C368.796 38.3284 370.701 39.1181 372.106 40.5219C373.511 41.9258 374.301 43.8291 374.304 45.8144V119.865C374.301 121.85 373.511 123.753 372.106 125.157C370.701 126.561 368.796 127.35 366.81 127.353V127.353ZM298.531 39.9902C296.985 39.9919 295.504 40.6061 294.411 41.698C293.318 42.7899 292.704 44.2703 292.702 45.8144V119.865C292.704 121.409 293.318 122.889 294.411 123.981C295.504 125.073 296.985 125.687 298.531 125.689H366.81C368.355 125.687 369.836 125.073 370.929 123.981C372.022 122.889 372.637 121.409 372.638 119.865V45.8144C372.637 44.2703 372.022 42.7899 370.929 41.698C369.836 40.6061 368.355 39.992 366.81 39.9902H298.531Z" fill="#3F3D56"/>
<path d="M187.382 69.1111H180.72C179.727 69.11 178.774 68.7152 178.072 68.0132C177.369 67.3113 176.974 66.3596 176.973 65.367V58.7108C176.974 57.7181 177.369 56.7664 178.072 56.0645C178.774 55.3626 179.727 54.9678 180.72 54.9667H187.382C188.375 54.9678 189.327 55.3626 190.03 56.0645C190.732 56.7664 191.127 57.7181 191.129 58.7108V65.367C191.127 66.3596 190.732 67.3113 190.03 68.0132C189.327 68.7152 188.375 69.11 187.382 69.1111V69.1111Z" fill="#D62828"/>
<path d="M187.382 89.9117H180.72C179.727 89.9106 178.774 89.5158 178.072 88.8139C177.369 88.112 176.974 87.1603 176.973 86.1676V79.5114C176.974 78.5188 177.369 77.5671 178.072 76.8652C178.774 76.1633 179.727 75.7684 180.72 75.7673H187.382C188.375 75.7684 189.327 76.1633 190.03 76.8652C190.732 77.5671 191.127 78.5188 191.129 79.5114V86.1676C191.127 87.1603 190.732 88.112 190.03 88.8139C189.327 89.5158 188.375 89.9106 187.382 89.9117V89.9117Z" fill="#CCCCCC"/>
<path d="M236.068 65.0649H204.968C204.306 65.0642 203.671 64.801 203.203 64.333C202.734 63.8651 202.471 63.2306 202.47 62.5688V61.5089C202.471 60.8471 202.734 60.2126 203.203 59.7447C203.671 59.2768 204.306 59.0135 204.968 59.0128H236.068C236.73 59.0135 237.365 59.2768 237.833 59.7447C238.302 60.2126 238.565 60.8471 238.566 61.5089V62.5688C238.565 63.2306 238.302 63.8651 237.833 64.333C237.365 64.801 236.73 65.0642 236.068 65.0649V65.0649Z" fill="#D62828"/>
<path d="M312.856 67.8062H306.195C305.201 67.805 304.249 67.4102 303.546 66.7083C302.844 66.0064 302.449 65.0547 302.448 64.062V57.4059C302.449 56.4132 302.844 55.4615 303.546 54.7596C304.249 54.0577 305.201 53.6628 306.195 53.6617H312.856C313.85 53.6628 314.802 54.0577 315.504 54.7596C316.207 55.4615 316.602 56.4132 316.603 57.4059V64.062C316.602 65.0547 316.207 66.0064 315.504 66.7083C314.802 67.4102 313.85 67.805 312.856 67.8062V67.8062Z" fill="#CCCCCC"/>
<path d="M361.543 63.76H330.443C329.781 63.7592 329.146 63.496 328.677 63.0281C328.209 62.5601 327.946 61.9257 327.945 61.2639V60.204C327.946 59.5422 328.209 58.9077 328.677 58.4398C329.146 57.9718 329.781 57.7086 330.443 57.7079H361.543C362.205 57.7086 362.84 57.9718 363.308 58.4398C363.776 58.9077 364.04 59.5422 364.041 60.204V61.2639C364.04 61.9257 363.776 62.5601 363.308 63.0281C362.84 63.496 362.205 63.7592 361.543 63.76Z" fill="#CCCCCC"/>
<path d="M361.542 83.7285H303.797C303.135 83.7277 302.5 83.4645 302.032 82.9966C301.563 82.5286 301.3 81.8942 301.299 81.2324V80.1725C301.3 79.5107 301.563 78.8762 302.032 78.4083C302.5 77.9403 303.135 77.6771 303.797 77.6764H361.542C362.205 77.6771 362.84 77.9403 363.308 78.4083C363.776 78.8762 364.04 79.5107 364.04 80.1725V81.2324C364.04 81.8942 363.776 82.5286 363.308 82.9966C362.84 83.4645 362.205 83.7277 361.542 83.7285V83.7285Z" fill="#D62828"/>
<path d="M361.542 97.8729H303.797C303.135 97.8722 302.5 97.6089 302.032 97.141C301.563 96.6731 301.3 96.0386 301.299 95.3768V94.3169C301.3 93.6551 301.563 93.0206 302.032 92.5527C302.5 92.0847 303.135 91.8215 303.797 91.8208H361.542C362.205 91.8215 362.84 92.0847 363.308 92.5527C363.776 93.0206 364.04 93.6551 364.04 94.3169V95.3768C364.04 96.0386 363.776 96.6731 363.308 97.141C362.84 97.6089 362.205 97.8722 361.542 97.8729V97.8729Z" fill="#CCCCCC"/>
<path d="M361.542 112.017H303.797C303.135 112.017 302.5 111.753 302.032 111.285C301.563 110.817 301.3 110.183 301.299 109.521V108.461C301.3 107.8 301.563 107.165 302.032 106.697C302.5 106.229 303.135 105.966 303.797 105.965H361.542C362.205 105.966 362.84 106.229 363.308 106.697C363.776 107.165 364.04 107.8 364.04 108.461V109.521C364.04 110.183 363.776 110.817 363.308 111.285C362.84 111.753 362.205 112.017 361.542 112.017V112.017Z" fill="#CCCCCC"/>
<path d="M491.71 127.353H423.431C421.444 127.35 419.539 126.561 418.134 125.157C416.73 123.753 415.939 121.85 415.937 119.865V45.8144C415.939 43.8291 416.73 41.9258 418.134 40.5219C419.539 39.1181 421.444 38.3284 423.431 38.3262H491.71C493.697 38.3284 495.602 39.1181 497.006 40.5219C498.411 41.9258 499.202 43.8291 499.204 45.8144V119.865C499.202 121.85 498.411 123.753 497.006 125.157C495.602 126.561 493.697 127.35 491.71 127.353V127.353ZM423.431 39.9902C421.886 39.9919 420.404 40.6061 419.311 41.698C418.219 42.7899 417.604 44.2703 417.602 45.8144V119.865C417.604 121.409 418.219 122.889 419.311 123.981C420.404 125.073 421.886 125.687 423.431 125.689H491.71C493.255 125.687 494.737 125.073 495.83 123.981C496.922 122.889 497.537 121.409 497.539 119.865V45.8144C497.537 44.2703 496.922 42.7899 495.83 41.698C494.737 40.6061 493.255 39.992 491.71 39.9902H423.431Z" fill="#3F3D56"/>
<path d="M486.443 63.76H455.343C454.681 63.7592 454.046 63.496 453.578 63.0281C453.109 62.5601 452.846 61.9257 452.845 61.2639V60.204C452.846 59.5422 453.109 58.9077 453.578 58.4398C454.046 57.9718 454.681 57.7086 455.343 57.7079H486.443C487.105 57.7086 487.74 57.9718 488.208 58.4398C488.677 58.9077 488.94 59.5422 488.941 60.204V61.2639C488.94 61.9257 488.677 62.5601 488.208 63.0281C487.74 63.496 487.105 63.7592 486.443 63.76V63.76Z" fill="#CCCCCC"/>
<path d="M486.443 83.7285H428.698C428.035 83.7277 427.4 83.4645 426.932 82.9966C426.464 82.5286 426.2 81.8942 426.2 81.2324V80.1725C426.2 79.5107 426.464 78.8762 426.932 78.4083C427.4 77.9403 428.035 77.6771 428.698 77.6764H486.443C487.105 77.6771 487.74 77.9403 488.208 78.4083C488.677 78.8762 488.94 79.5107 488.941 80.1725V81.2324C488.94 81.8942 488.677 82.5286 488.208 82.9966C487.74 83.4645 487.105 83.7277 486.443 83.7285Z" fill="#CCCCCC"/>
<path d="M486.443 97.8729H428.698C428.035 97.8722 427.4 97.6089 426.932 97.141C426.464 96.6731 426.2 96.0386 426.2 95.3768V94.3169C426.2 93.6551 426.464 93.0206 426.932 92.5527C427.4 92.0847 428.035 91.8215 428.698 91.8208H486.443C487.105 91.8215 487.74 92.0847 488.208 92.5527C488.677 93.0206 488.94 93.6551 488.941 94.3169V95.3768C488.94 96.0386 488.677 96.6731 488.208 97.141C487.74 97.6089 487.105 97.8722 486.443 97.8729Z" fill="#CCCCCC"/>
<path d="M486.443 112.017H428.698C428.035 112.017 427.4 111.753 426.932 111.285C426.464 110.817 426.2 110.183 426.2 109.521V108.461C426.2 107.8 426.464 107.165 426.932 106.697C427.4 106.229 428.035 105.966 428.698 105.965H486.443C487.105 105.966 487.74 106.229 488.208 106.697C488.677 107.165 488.94 107.8 488.941 108.461V109.521C488.94 110.183 488.677 110.817 488.208 111.285C487.74 111.753 487.105 112.017 486.443 112.017Z" fill="#CCCCCC"/>
<path d="M236.068 85.8656H204.968C204.306 85.8648 203.671 85.6016 203.203 85.1337C202.734 84.6657 202.471 84.0313 202.47 83.3695V82.3095C202.471 81.6478 202.734 81.0133 203.203 80.5454C203.671 80.0774 204.306 79.8142 204.968 79.8135H236.068C236.73 79.8142 237.365 80.0774 237.833 80.5454C238.302 81.0133 238.565 81.6478 238.566 82.3095V83.3695C238.565 84.0313 238.302 84.6657 237.833 85.1337C237.365 85.6016 236.73 85.8648 236.068 85.8656Z" fill="#CCCCCC"/>
<path d="M187.382 110.712H180.72C179.727 110.711 178.774 110.316 178.072 109.614C177.369 108.913 176.974 107.961 176.973 106.968V100.312C176.974 99.3193 177.369 98.3676 178.072 97.6657C178.774 96.9638 179.727 96.569 180.72 96.5679H187.382C188.375 96.569 189.327 96.9638 190.03 97.6657C190.732 98.3676 191.127 99.3193 191.129 100.312V106.968C191.127 107.961 190.732 108.913 190.03 109.614C189.327 110.316 188.375 110.711 187.382 110.712V110.712Z" fill="#CCCCCC"/>
<path d="M236.068 106.666H204.968C204.306 106.665 203.671 106.402 203.203 105.934C202.734 105.466 202.471 104.832 202.47 104.17V103.11C202.471 102.448 202.734 101.814 203.203 101.346C203.671 100.878 204.306 100.615 204.968 100.614H236.068C236.73 100.615 237.365 100.878 237.833 101.346C238.302 101.814 238.565 102.448 238.566 103.11V104.17C238.565 104.832 238.302 105.466 237.833 105.934C237.365 106.402 236.73 106.665 236.068 106.666Z" fill="#CCCCCC"/>
<path d="M441.747 59.9589C441.747 59.9397 441.75 59.9212 441.75 59.9019C441.75 58.9185 441.556 57.9448 441.179 57.0363C440.803 56.1278 440.251 55.3023 439.555 54.6069C438.859 53.9116 438.033 53.36 437.124 52.9837C436.215 52.6074 435.24 52.4137 434.256 52.4137V59.9589H441.747Z" fill="#D62828"/>
<path d="M433.423 60.7909V53.2457C431.943 53.2452 430.496 53.6825 429.265 54.5025C428.033 55.3225 427.072 56.4884 426.503 57.8534C425.934 59.2183 425.782 60.7211 426.066 62.1723C426.35 63.6234 427.058 64.958 428.1 66.0078C429.142 67.0576 430.472 67.7755 431.922 68.0711C433.372 68.3666 434.878 68.2266 436.248 67.6687C437.618 67.1107 438.793 66.1598 439.623 64.9358C440.454 63.7118 440.903 62.2696 440.914 60.7909H433.423Z" fill="#CCCCCC"/>
</g>
<defs>
<clipPath id="clip0_64_254">
<rect width="656" height="377" fill="white"/>
</clipPath>
</defs>
</svg>
