<svg width="711" height="446" viewBox="0 0 711 446" fill="none" xmlns="http://www.w3.org/2000/svg">
<g clip-path="url(#clip0_64_147)">
<path d="M171.345 446C265.976 446 342.69 442.426 342.69 438.018C342.69 433.61 265.976 430.037 171.345 430.037C76.7138 430.037 0 433.61 0 438.018C0 442.426 76.7138 446 171.345 446Z" fill="#E6E6E6"/>
<path d="M352.551 0C350.771 0.00189932 349.065 0.709845 347.806 1.96849C346.548 3.22713 345.84 4.93367 345.838 6.71365V255.607C345.84 257.387 346.548 259.094 347.806 260.352C349.065 261.611 350.771 262.319 352.551 262.321H704.287C706.067 262.319 707.773 261.611 709.032 260.352C710.29 259.094 710.998 257.387 711 255.607V6.71365C710.998 4.93366 710.29 3.22713 709.032 1.96849C707.773 0.709845 706.067 0.00189721 704.287 0H352.551Z" fill="#E6E6E6"/>
<path d="M353.39 254.768H703.448V7.55322H353.39V254.768Z" fill="white"/>
<path d="M253.745 316.38C251.596 316.381 249.512 317.119 247.842 318.472C246.172 319.824 245.016 321.709 244.568 323.811H257.655V356.663H244.568C245.051 358.931 246.356 360.94 248.232 362.303C250.109 363.666 252.423 364.285 254.729 364.042C257.035 363.799 259.169 362.711 260.72 360.987C262.271 359.264 263.13 357.027 263.129 354.708V325.767C263.129 324.534 262.887 323.313 262.415 322.175C261.944 321.036 261.252 320.001 260.381 319.13C259.509 318.258 258.475 317.567 257.336 317.095C256.198 316.623 254.978 316.38 253.745 316.38V316.38Z" fill="#3F3D56"/>
<path d="M148.23 258.89C143.757 258.895 139.468 260.674 136.305 263.838C133.142 267.002 131.363 271.291 131.357 275.766V405.491C131.363 409.965 133.142 414.255 136.305 417.418C139.468 420.582 143.757 422.362 148.23 422.367H230.225C234.698 422.362 238.987 420.582 242.15 417.418C245.313 414.255 247.093 409.965 247.098 405.491V275.766C247.093 271.291 245.313 267.002 242.15 263.838C238.987 260.674 234.698 258.895 230.225 258.89H148.23Z" fill="#3F3D56"/>
<path d="M139.569 437.62C144.32 437.62 148.171 433.768 148.171 429.016C148.171 424.264 144.32 420.412 139.569 420.412C134.818 420.412 130.966 424.264 130.966 429.016C130.966 433.768 134.818 437.62 139.569 437.62Z" fill="#3F3D56"/>
<path d="M235.758 437.62C240.509 437.62 244.36 433.768 244.36 429.016C244.36 424.264 240.509 420.412 235.758 420.412C231.007 420.412 227.156 424.264 227.156 429.016C227.156 433.768 231.007 437.62 235.758 437.62Z" fill="#3F3D56"/>
<path d="M150.517 257.716H145.825V422.758H150.517V257.716Z" fill="#4D4D4D"/>
<path d="M163.812 257.716H159.12V422.758H163.812V257.716Z" fill="#4D4D4D"/>
<path d="M177.106 257.716H172.414V422.758H177.106V257.716Z" fill="#4D4D4D"/>
<path d="M190.401 257.716H185.708V422.758H190.401V257.716Z" fill="#4D4D4D"/>
<path d="M203.695 257.716H199.003V422.758H203.695V257.716Z" fill="#4D4D4D"/>
<path d="M216.99 257.716H212.297V422.758H216.99V257.716Z" fill="#4D4D4D"/>
<path d="M230.284 257.716H225.592V422.758H230.284V257.716Z" fill="#4D4D4D"/>
<path d="M229.023 245.201C232.089 239.985 233.706 234.044 233.705 227.993H150.615C150.614 234.044 152.231 239.985 155.297 245.201H138.396C138.396 254.273 146.055 261.627 155.502 261.627H176.438C179.955 262.668 183.604 263.195 187.272 263.192H197.048C200.716 263.195 204.365 262.668 207.882 261.627H228.818C238.265 261.627 245.924 254.273 245.924 245.201H229.023Z" fill="#2F2E41"/>
<path d="M167.647 363.703C167.801 365.371 167.446 367.046 166.63 368.508C165.813 369.97 164.572 371.15 163.072 371.893L163.03 371.916C155.208 376.378 148.809 379.881 141.213 379.235C140.448 379.168 139.708 378.924 139.053 378.523C138.397 378.123 137.842 377.576 137.432 376.927C137.022 376.277 136.768 375.541 136.689 374.776C136.61 374.012 136.708 373.24 136.976 372.519L147.78 351.97C154.056 344.657 158.478 344.65 166.158 350.797L167.647 363.703Z" fill="#2F2E41"/>
<path d="M212.373 363.703C212.218 365.371 212.573 367.046 213.39 368.508C214.206 369.97 215.447 371.15 216.948 371.893L216.99 371.916C224.811 376.378 231.211 379.881 238.806 379.235C239.571 379.168 240.311 378.924 240.967 378.523C241.622 378.123 242.177 377.576 242.587 376.927C242.997 376.277 243.252 375.541 243.331 374.776C243.41 374.012 243.311 373.24 243.043 372.519L232.239 351.97C225.964 344.657 221.541 344.65 213.862 350.797L212.373 363.703Z" fill="#2F2E41"/>
<path d="M180.974 121.616H150.911C149.55 121.618 148.223 121.181 147.129 120.37C146.035 119.559 145.231 118.417 144.836 117.114C143.911 114.028 142.716 111.034 142.697 108.318C142.623 97.7795 143.147 91.0715 147.78 86.8083C163.218 75.1001 174.403 77.2537 184.926 89.5459C188.62 96.4132 187.672 106.662 185.674 117.676C185.476 118.78 184.897 119.779 184.038 120.499C183.179 121.219 182.095 121.614 180.974 121.616Z" fill="#2F2E41"/>
<path d="M165.376 134.913C176.605 134.913 185.708 125.808 185.708 114.576C185.708 103.344 176.605 94.2393 165.376 94.2393C154.146 94.2393 145.043 103.344 145.043 114.576C145.043 125.808 154.146 134.913 165.376 134.913Z" fill="#A0616A"/>
<path d="M181.016 155.25L152.863 156.032L150.517 125.527L177.888 124.745L181.016 155.25Z" fill="#A0616A"/>
<path d="M228.72 227.993L209.293 236.987C206.038 244.71 201.551 244.488 195.875 236.597C190.456 246.088 178.787 240.4 173.086 236.255C169.411 234.382 165.346 233.401 161.221 233.392C157.096 233.384 153.027 234.348 149.344 236.206L128.62 144.299C135.008 138.806 143.52 135.356 151.69 132.957L167.722 152.903L178.67 133.348C186.28 127.229 196.968 127.218 208.387 128.655L215.054 164.307C210.657 192.431 217.27 206.536 228.72 227.993Z" fill="#D62828"/>
<path d="M164.594 349.233L148.171 350.797L123.843 243.251C123.289 240.76 123.302 238.177 123.881 235.693C124.459 233.208 125.588 230.885 127.184 228.895C128.78 226.904 130.802 225.298 133.102 224.195C135.402 223.091 137.92 222.518 140.471 222.518V222.518C142.896 222.518 145.293 223.036 147.502 224.037C149.711 225.039 151.681 226.5 153.279 228.324C154.878 230.149 156.069 232.293 156.772 234.615C157.475 236.936 157.675 239.381 157.357 241.786L154.428 263.974L164.594 349.233Z" fill="#2F2E41"/>
<path d="M213.861 350.797L230.284 350.015L254.613 243.251C255.166 240.76 255.153 238.177 254.575 235.693C253.996 233.208 252.868 230.885 251.272 228.895C249.676 226.904 247.653 225.298 245.353 224.195C243.054 223.091 240.535 222.518 237.985 222.518V222.518C235.559 222.518 233.162 223.036 230.953 224.037C228.744 225.039 226.775 226.5 225.176 228.324C223.577 230.149 222.386 232.293 221.683 234.615C220.98 236.936 220.78 239.381 221.098 241.786L224.028 263.974L213.861 350.797Z" fill="#2F2E41"/>
<path d="M267.241 196.455L253.354 232.295C245.761 226.489 239.64 225.697 231.218 228.776C228.889 228.452 227.156 223.332 227.156 220.98C227.156 219.768 227.623 218.602 228.461 217.726C229.298 216.849 230.441 216.329 231.652 216.274L244.36 215.696C246.686 209.607 248.099 203.208 248.554 196.706C254.652 194.975 261.099 194.889 267.241 196.455V196.455Z" fill="#A0616A"/>
<path d="M268.604 197.488L271.989 184.853C273.468 180.232 273.322 175.244 271.578 170.717C269.833 166.19 266.593 162.395 262.396 159.962L208.387 128.655L207.605 163.072L247.489 180.28C248.591 186.135 248.949 192.106 248.554 198.052C254.775 196.202 262.367 195.81 268.604 197.488Z" fill="#D62828"/>
<path d="M185.318 103.234L164.203 107.145C162.252 107.145 160.319 106.761 158.517 106.014C156.714 105.267 155.076 104.172 153.696 102.792C152.316 101.412 151.222 99.7741 150.475 97.971C149.729 96.1679 149.344 94.2353 149.344 92.2837H186.1L185.318 103.234Z" fill="#2F2E41"/>
<path d="M146.607 111.056C147.687 111.056 148.562 109.305 148.562 107.145C148.562 104.985 147.687 103.234 146.607 103.234C145.527 103.234 144.652 104.985 144.652 107.145C144.652 109.305 145.527 111.056 146.607 111.056Z" fill="#A0616A"/>
<path d="M211.124 169.393H210.897V163.17C210.897 162.697 210.804 162.229 210.623 161.792C210.442 161.355 210.177 160.958 209.842 160.624C209.508 160.289 209.111 160.024 208.674 159.843C208.237 159.662 207.769 159.569 207.296 159.569H194.115C193.643 159.569 193.174 159.662 192.737 159.843C192.301 160.024 191.904 160.289 191.569 160.624C191.235 160.958 190.97 161.355 190.789 161.792C190.608 162.229 190.515 162.697 190.515 163.17V197.308C190.515 197.781 190.608 198.25 190.789 198.687C190.97 199.124 191.235 199.521 191.569 199.855C191.904 200.189 192.301 200.455 192.737 200.636C193.174 200.817 193.643 200.91 194.115 200.91H207.296C207.769 200.91 208.237 200.817 208.674 200.636C209.111 200.455 209.508 200.189 209.842 199.855C210.177 199.521 210.442 199.124 210.623 198.687C210.804 198.25 210.897 197.781 210.897 197.308V173.822H211.124V169.393Z" fill="#E6E6E6"/>
<path d="M200.176 172.849C201.904 172.849 203.304 171.448 203.304 169.72C203.304 167.992 201.904 166.591 200.176 166.591C198.448 166.591 197.048 167.992 197.048 169.72C197.048 171.448 198.448 172.849 200.176 172.849Z" fill="#D62828"/>
<path d="M197.439 198.27C181.353 210.9 165.224 221.413 153.254 222.909L151.299 201.399C162.796 199.741 178.166 192.166 194.311 183.408L202.207 179.302C203.48 178.639 204.898 178.303 206.333 178.323C207.768 178.343 209.176 178.718 210.43 179.416C211.685 180.113 212.747 181.111 213.521 182.319C214.296 183.527 214.759 184.909 214.869 186.34V186.34C215.025 188.37 214.463 190.39 213.282 192.048C212.1 193.705 210.374 194.895 208.404 195.409L197.439 198.27Z" fill="#A0616A"/>
<path d="M166.94 223.3L134.876 224.082C124.088 202.913 120.172 180.323 122.364 156.471C122.364 153.922 122.982 151.411 124.164 149.154C125.347 146.896 127.059 144.959 129.155 143.508L132.53 141.17C146.964 162.601 155.916 182.502 152.863 199.052L162.247 198.27C156.17 206.474 158.983 214.84 166.94 223.3Z" fill="#D62828"/>
<path d="M28.2061 315.675C28.2061 315.675 29.8626 280.038 63.8224 284.181Z" fill="#E6E6E6"/>
<path d="M27.8073 436.431C27.7648 436.058 23.7566 398.924 39.9865 379.272C45.9763 372.018 54.0025 367.957 63.8416 367.2L63.9499 368.6C54.5062 369.326 46.8084 373.217 41.0708 380.163C25.2206 399.352 29.1603 435.905 29.2015 436.272L27.8073 436.431Z" fill="#E6E6E6"/>
<path d="M27.8477 279.238H26.4351V435.369H27.8477V279.238Z" fill="#E6E6E6"/>
<path d="M27.3392 281.025C33.7435 281.025 38.9352 275.832 38.9352 269.427C38.9352 263.021 33.7435 257.828 27.3392 257.828C20.9349 257.828 15.7432 263.021 15.7432 269.427C15.7432 275.832 20.9349 281.025 27.3392 281.025Z" fill="#D62828"/>
<path d="M63.8957 379.425C70.2595 379.425 75.4184 374.265 75.4184 367.9C75.4184 361.534 70.2595 356.375 63.8957 356.375C57.5319 356.375 52.373 361.534 52.373 367.9C52.373 374.265 57.5319 379.425 63.8957 379.425Z" fill="#E6E6E6"/>
<path d="M402.296 56.8276C398.487 56.8276 394.764 57.9573 391.597 60.0739C388.43 62.1904 385.962 65.1987 384.504 68.7184C383.046 72.2381 382.665 76.111 383.408 79.8475C384.151 83.5839 385.985 87.0161 388.679 89.7099C391.372 92.4038 394.803 94.2383 398.539 94.9815C402.275 95.7247 406.147 95.3433 409.666 93.8854C413.185 92.4275 416.193 89.9586 418.309 86.791C420.425 83.6234 421.554 79.8993 421.554 76.0896C421.554 73.5601 421.056 71.0553 420.088 68.7184C419.12 66.3814 417.702 64.258 415.914 62.4693C414.125 60.6807 412.002 59.2618 409.666 58.2938C407.329 57.3258 404.825 56.8276 402.296 56.8276V56.8276ZM411.168 77.9671C410.969 77.9671 410.308 77.9612 410.115 77.9495L406.32 77.8501C406.3 77.8496 406.281 77.8542 406.263 77.8634C406.246 77.8726 406.231 77.8862 406.221 77.9027L400.525 86.4185C400.441 86.5515 400.324 86.6609 400.186 86.7365C400.048 86.8122 399.893 86.8517 399.736 86.8513H398.35C398.022 86.8513 397.911 86.5238 398.028 86.2197L400.958 77.8618C400.965 77.8444 400.967 77.8257 400.965 77.8072C400.963 77.7887 400.956 77.771 400.946 77.7555C400.936 77.74 400.922 77.7272 400.906 77.7182C400.889 77.7092 400.871 77.7043 400.853 77.7039L393.736 77.5459C393.662 77.5443 393.589 77.5598 393.522 77.5913C393.455 77.6227 393.396 77.6693 393.35 77.7272L391.146 80.4001C391.057 80.511 390.945 80.6006 390.818 80.6624C390.69 80.7241 390.55 80.7564 390.409 80.7569H389.432C389.395 80.7573 389.358 80.7487 389.324 80.7317C389.291 80.7148 389.262 80.6901 389.241 80.6597C389.219 80.6293 389.205 80.5941 389.199 80.557C389.194 80.52 389.198 80.4822 389.21 80.4469L390.374 76.4288C390.461 76.2051 390.461 75.9565 390.374 75.7328L389.21 71.7147C389.198 71.6794 389.194 71.6416 389.199 71.6046C389.205 71.5675 389.219 71.5323 389.241 71.5019C389.262 71.4715 389.291 71.4468 389.324 71.4299C389.358 71.4129 389.395 71.4043 389.432 71.4047H390.415C390.557 71.4039 390.697 71.4356 390.824 71.4974C390.952 71.5593 391.064 71.6496 391.151 71.7615L393.315 74.3934C393.361 74.4519 393.419 74.4987 393.486 74.5302C393.553 74.5617 393.627 74.577 393.701 74.5747L400.858 74.4694C400.877 74.4693 400.896 74.4647 400.912 74.4558C400.929 74.4469 400.943 74.4341 400.953 74.4185C400.963 74.4029 400.97 74.385 400.972 74.3663C400.974 74.3477 400.971 74.3289 400.964 74.3115L398.034 65.9595C397.917 65.6553 398.028 65.3278 398.356 65.3278H399.742C399.899 65.3281 400.054 65.3679 400.191 65.4435C400.329 65.5191 400.446 65.6281 400.531 65.7606L406.221 74.2823C406.231 74.2993 406.245 74.3132 406.263 74.3225C406.281 74.3318 406.3 74.3361 406.32 74.3349L410.115 74.2355C410.302 74.2238 410.969 74.2179 411.168 74.2179C413.764 74.2179 415.396 75.0601 415.396 76.0954C415.396 77.1306 413.758 77.9671 411.168 77.9671Z" fill="#3F3D56"/>
<path d="M451.167 75.1846H446.379V76.7808H451.167V75.1846Z" fill="#3F3D56"/>
<path d="M619.748 76.7808H610.382V75.1846H619.748V76.7808ZM601.017 76.7808H591.651V75.1846H601.017L601.017 76.7808ZM582.286 76.7808H572.92V75.1846H582.286V76.7808ZM563.554 76.7808H554.188V75.1846H563.554V76.7808ZM544.823 76.7808H535.457V75.1846H544.823V76.7808ZM526.092 76.7808H516.726V75.1846H526.092V76.7808ZM507.361 76.7808H497.995V75.1846H507.361V76.7808ZM488.629 76.7808H479.263V75.1846H488.629V76.7808ZM469.898 76.7808H460.532V75.1846H469.898V76.7808Z" fill="#3F3D56"/>
<path d="M633.902 75.1846H629.114V76.7808H633.902V75.1846Z" fill="#3F3D56"/>
<path d="M451.167 130.256H446.379V131.852H451.167V130.256Z" fill="#3F3D56"/>
<path d="M619.748 131.852H610.382V130.256H619.748V131.852ZM601.017 131.852H591.651V130.256H601.017L601.017 131.852ZM582.286 131.852H572.92V130.256H582.286V131.852ZM563.554 131.852H554.188V130.256H563.554V131.852ZM544.823 131.852H535.457V130.256H544.823V131.852ZM526.092 131.852H516.726V130.256H526.092V131.852ZM507.361 131.852H497.995V130.256H507.361V131.852ZM488.629 131.852H479.263V130.256H488.629V131.852ZM469.898 131.852H460.532V130.256H469.898V131.852Z" fill="#3F3D56"/>
<path d="M633.902 130.256H629.114V131.852H633.902V130.256Z" fill="#3F3D56"/>
<path d="M451.167 185.327H446.379V186.923H451.167V185.327Z" fill="#3F3D56"/>
<path d="M619.748 186.923H610.382V185.327H619.748V186.923ZM601.017 186.923H591.651V185.327H601.017L601.017 186.923ZM582.286 186.923H572.92V185.327H582.286V186.923ZM563.554 186.923H554.188V185.327H563.554V186.923ZM544.823 186.923H535.457V185.327H544.823V186.923ZM526.092 186.923H516.726V185.327H526.092V186.923ZM507.361 186.923H497.995V185.327H507.361V186.923ZM488.629 186.923H479.263V185.327H488.629V186.923ZM469.898 186.923H460.532V185.327H469.898V186.923Z" fill="#3F3D56"/>
<path d="M633.902 185.327H629.114V186.923H633.902V185.327Z" fill="#3F3D56"/>
<path d="M401.951 112.697C398.27 112.697 394.672 113.789 391.611 115.834C388.551 117.879 386.165 120.787 384.757 124.188C383.348 127.589 382.979 131.332 383.697 134.943C384.416 138.554 386.188 141.871 388.791 144.474C391.394 147.077 394.71 148.85 398.32 149.568C401.93 150.287 405.672 149.918 409.073 148.509C412.474 147.1 415.38 144.714 417.425 141.653C419.47 138.592 420.562 134.993 420.562 131.311C420.562 126.375 418.601 121.64 415.111 118.149C411.62 114.658 406.887 112.697 401.951 112.697V112.697ZM393.248 130.678L394.277 125.207C394.542 123.72 395.232 122.55 396.526 122.55H398.47L398.583 122.104C398.682 121.714 398.908 121.369 399.225 121.122C399.542 120.876 399.933 120.742 400.335 120.742H403.556C403.957 120.742 404.346 120.875 404.664 121.12C404.981 121.366 405.207 121.71 405.307 122.098L405.421 122.55H407.376C408.642 122.55 409.314 123.698 409.631 125.201V125.207L410.665 130.684C410.673 130.725 410.67 130.767 410.655 130.806C410.641 130.846 410.616 130.88 410.583 130.906C410.55 130.932 410.511 130.948 410.47 130.952C410.428 130.957 410.386 130.95 410.348 130.933L408.913 130.271C408.879 130.257 408.849 130.235 408.827 130.206C408.804 130.178 408.789 130.144 408.783 130.108L407.867 125.269C407.698 124.647 407.461 124.365 406.958 124.365H396.95C396.452 124.365 396.181 124.664 396.04 125.269L395.124 130.108C395.117 130.143 395.102 130.177 395.079 130.205C395.057 130.234 395.027 130.257 394.994 130.271L393.565 130.927C393.527 130.944 393.485 130.951 393.444 130.946C393.403 130.941 393.363 130.924 393.331 130.899C393.298 130.873 393.273 130.839 393.259 130.8C393.244 130.761 393.24 130.719 393.248 130.678L393.248 130.678ZM413.179 134.2L410.088 141.881C408.927 141.765 407.82 141.335 406.884 140.638C405.461 141.241 403.946 141.597 402.403 141.689C402.245 141.695 402.092 141.7 401.951 141.7C401.809 141.7 401.657 141.7 401.499 141.689C399.956 141.594 398.441 141.239 397.017 140.638C396.082 141.335 394.974 141.765 393.813 141.881L390.722 134.2C390.674 134.079 390.649 133.951 390.649 133.821C390.649 133.626 390.705 133.435 390.81 133.271C390.915 133.107 391.065 132.976 391.242 132.894L401.759 128.061C401.818 128.033 401.882 128.019 401.948 128.019C402.013 128.019 402.078 128.033 402.137 128.061L412.66 132.894C412.837 132.976 412.987 133.106 413.092 133.271C413.197 133.435 413.253 133.626 413.253 133.821C413.252 133.951 413.227 134.079 413.179 134.2V134.2Z" fill="#3F3D56"/>
<path d="M408.658 181.65H403.061C403 181.651 402.942 181.675 402.899 181.718C402.856 181.76 402.832 181.818 402.832 181.879V189.878C402.832 189.938 402.856 189.996 402.899 190.039C402.942 190.082 403 190.106 403.061 190.106H408.658C408.901 190.105 409.133 190.009 409.304 189.838C409.475 189.666 409.572 189.434 409.572 189.192V182.565C409.572 182.322 409.475 182.09 409.304 181.919C409.133 181.748 408.901 181.651 408.658 181.65Z" fill="#3F3D56"/>
<path d="M407.402 191.82C407.048 191.848 406.718 192.012 406.482 192.278C406.246 192.543 406.122 192.89 406.136 193.245C406.15 193.6 406.301 193.936 406.557 194.182C406.814 194.429 407.155 194.566 407.51 194.566C407.866 194.566 408.207 194.429 408.463 194.182C408.72 193.936 408.87 193.6 408.884 193.245C408.898 192.89 408.775 192.543 408.539 192.278C408.303 192.012 407.973 191.848 407.619 191.82C407.547 191.814 407.474 191.814 407.402 191.82Z" fill="#3F3D56"/>
<path d="M396.44 191.82C396.086 191.848 395.756 192.012 395.52 192.278C395.284 192.543 395.16 192.89 395.174 193.245C395.188 193.6 395.339 193.936 395.596 194.182C395.852 194.429 396.193 194.566 396.549 194.566C396.904 194.566 397.245 194.429 397.501 194.182C397.758 193.936 397.909 193.6 397.923 193.245C397.937 192.89 397.813 192.543 397.577 192.278C397.341 192.012 397.011 191.848 396.657 191.82C396.585 191.814 396.512 191.814 396.44 191.82V191.82Z" fill="#3F3D56"/>
<path d="M401.004 181.65H395.418C395.172 181.651 394.938 181.749 394.764 181.923C394.591 182.096 394.493 182.331 394.492 182.576V189.18C394.493 189.426 394.591 189.661 394.764 189.834C394.938 190.007 395.172 190.105 395.418 190.106H401.004C401.065 190.106 401.123 190.082 401.165 190.039C401.208 189.996 401.232 189.938 401.232 189.878V181.879C401.232 181.818 401.208 181.76 401.165 181.718C401.123 181.675 401.065 181.651 401.004 181.65V181.65Z" fill="#3F3D56"/>
<path d="M402.032 167.862C398.312 167.862 394.674 168.966 391.581 171.033C388.487 173.101 386.076 176.039 384.652 179.478C383.228 182.916 382.856 186.699 383.582 190.349C384.308 193.999 386.099 197.351 388.73 199.983C391.361 202.614 394.713 204.406 398.362 205.132C402.011 205.858 405.794 205.486 409.231 204.062C412.669 202.638 415.607 200.226 417.674 197.132C419.741 194.037 420.844 190.4 420.844 186.678C420.844 181.688 418.862 176.902 415.334 173.373C411.806 169.845 407.021 167.862 402.032 167.862V167.862ZM411.172 194.334C411.17 194.939 410.929 195.52 410.5 195.948C410.072 196.376 409.492 196.617 408.887 196.619H395.178C394.572 196.617 393.992 196.376 393.564 195.948C393.136 195.52 392.895 194.939 392.893 194.334V178.565C392.894 178.081 393.087 177.617 393.43 177.274C393.772 176.931 394.236 176.738 394.721 176.737H409.344C409.828 176.738 410.292 176.931 410.635 177.274C410.977 177.617 411.17 178.081 411.172 178.565V194.334Z" fill="#3F3D56"/>
<path d="M408.715 178.336H395.349C395.239 178.329 395.129 178.344 395.026 178.381C394.922 178.417 394.827 178.475 394.747 178.55C394.667 178.625 394.602 178.716 394.559 178.817C394.515 178.918 394.492 179.026 394.492 179.136C394.492 179.246 394.515 179.355 394.559 179.456C394.602 179.557 394.667 179.647 394.747 179.722C394.827 179.797 394.922 179.855 395.026 179.892C395.129 179.929 395.239 179.944 395.349 179.936H408.715C408.825 179.944 408.935 179.929 409.039 179.892C409.142 179.855 409.237 179.797 409.318 179.722C409.398 179.647 409.462 179.557 409.506 179.456C409.55 179.355 409.572 179.246 409.572 179.136C409.572 179.026 409.55 178.918 409.506 178.817C409.462 178.716 409.398 178.625 409.318 178.55C409.237 178.475 409.142 178.417 409.039 178.381C408.935 178.344 408.825 178.329 408.715 178.336Z" fill="#3F3D56"/>
<path d="M661.831 87.9547C659.464 87.9547 657.149 87.2526 655.181 85.9371C653.213 84.6216 651.678 82.7518 650.772 80.5642C649.867 78.3766 649.629 75.9694 650.091 73.6471C650.553 71.3248 651.693 69.1916 653.367 67.5173C655.041 65.8429 657.174 64.7027 659.496 64.2408C661.818 63.7788 664.224 64.0159 666.411 64.9221C668.599 65.8282 670.468 67.3627 671.783 69.3315C673.098 71.3002 673.8 73.6149 673.8 75.9827C673.797 79.1568 672.535 82.1999 670.291 84.4443C668.047 86.6887 665.004 87.9512 661.831 87.9547ZM661.831 65.607C659.779 65.607 657.774 66.2155 656.068 67.3556C654.362 68.4957 653.032 70.1162 652.247 72.0121C651.462 73.908 651.256 75.9942 651.657 78.0069C652.057 80.0196 653.045 81.8684 654.496 83.3195C655.946 84.7705 657.795 85.7587 659.807 86.1591C661.819 86.5594 663.905 86.354 665.801 85.5686C667.696 84.7833 669.316 83.4534 670.456 81.7472C671.596 80.0409 672.204 78.0349 672.204 75.9827C672.201 73.2319 671.107 70.5946 669.163 68.6494C667.218 66.7043 664.581 65.6101 661.831 65.607V65.607Z" fill="#D62828"/>
<path d="M666.385 72.5568L665.257 71.4282L661.831 74.8546L658.405 71.4282L657.277 72.5568L660.703 75.9832L657.277 79.4095L658.405 80.5381L661.831 77.1117L665.257 80.5381L666.385 79.4095L662.959 75.9832L666.385 72.5568Z" fill="#D62828"/>
<path d="M661.831 143.026C659.464 143.026 657.149 142.324 655.181 141.008C653.213 139.693 651.678 137.823 650.772 135.635C649.867 133.448 649.629 131.041 650.091 128.718C650.553 126.396 651.693 124.263 653.367 122.589C655.041 120.914 657.174 119.774 659.496 119.312C661.818 118.85 664.224 119.087 666.411 119.993C668.599 120.899 670.468 122.434 671.783 124.403C673.098 126.372 673.8 128.686 673.8 131.054C673.797 134.228 672.535 137.271 670.291 139.516C668.047 141.76 665.004 143.022 661.831 143.026ZM661.831 120.678C659.779 120.678 657.774 121.287 656.068 122.427C654.362 123.567 653.032 125.187 652.247 127.083C651.462 128.979 651.256 131.066 651.657 133.078C652.057 135.091 653.045 136.94 654.496 138.391C655.946 139.842 657.795 140.83 659.807 141.23C661.819 141.631 663.905 141.425 665.801 140.64C667.696 139.855 669.316 138.525 670.456 136.818C671.596 135.112 672.204 133.106 672.204 131.054C672.201 128.303 671.107 125.666 669.163 123.721C667.218 121.776 664.581 120.681 661.831 120.678V120.678Z" fill="#D62828"/>
<path d="M666.385 127.628L665.257 126.499L661.831 129.925L658.405 126.499L657.277 127.628L660.703 131.054L657.277 134.48L658.405 135.609L661.831 132.183L665.257 135.609L666.385 134.48L662.959 131.054L666.385 127.628Z" fill="#D62828"/>
<path d="M661.831 198.097C659.464 198.097 657.149 197.395 655.181 196.079C653.213 194.764 651.678 192.894 650.772 190.706C649.867 188.519 649.629 186.112 650.091 183.789C650.553 181.467 651.693 179.334 653.367 177.659C655.041 175.985 657.174 174.845 659.496 174.383C661.818 173.921 664.224 174.158 666.411 175.064C668.599 175.97 670.468 177.505 671.783 179.474C673.098 181.442 673.8 183.757 673.8 186.125C673.797 189.299 672.535 192.342 670.291 194.586C668.047 196.831 665.004 198.093 661.831 198.097V198.097ZM661.831 175.749C659.779 175.749 657.774 176.358 656.068 177.498C654.362 178.638 653.032 180.258 652.247 182.154C651.462 184.05 651.256 186.136 651.657 188.149C652.057 190.162 653.045 192.01 654.496 193.462C655.946 194.913 657.795 195.901 659.807 196.301C661.819 196.702 663.905 196.496 665.801 195.711C667.696 194.925 669.316 193.596 670.456 191.889C671.596 190.183 672.204 188.177 672.204 186.125C672.201 183.374 671.107 180.737 669.163 178.792C667.218 176.846 664.581 175.752 661.831 175.749V175.749Z" fill="#D62828"/>
<path d="M666.385 182.699L665.257 181.57L661.831 184.997L658.405 181.57L657.277 182.699L660.703 186.125L657.277 189.552L658.405 190.68L661.831 187.254L665.257 190.68L666.385 189.552L662.959 186.125L666.385 182.699Z" fill="#D62828"/>
</g>
<defs>
<clipPath id="clip0_64_147">
<rect width="711" height="446" fill="white"/>
</clipPath>
</defs>
</svg>
