<svg width="450" height="565" viewBox="0 0 450 565" fill="none" xmlns="http://www.w3.org/2000/svg">
<g clip-path="url(#clip0_64_366)">
<path d="M108.878 120.394H2.18945V25.4465H108.878V120.394Z" fill="white"/>
<path d="M111.068 122.584H0V23.2566H111.068V122.584ZM4.37897 118.204H106.689V27.6366H4.37897V118.204Z" fill="#CCCCCC"/>
<path d="M129.401 513.409L118.664 513.408L113.556 471.983L129.403 471.984L129.401 513.409Z" fill="#FFB7B7"/>
<path d="M132.139 523.819L97.5181 523.818V523.38C97.5183 519.805 98.9381 516.377 101.465 513.849C103.992 511.321 107.42 509.901 110.993 509.901H110.994L132.139 509.902L132.139 523.819Z" fill="#2F2E41"/>
<path d="M229.6 506.812L219.113 509.115L205.242 469.75L220.72 466.351L229.6 506.812Z" fill="#FFB7B7"/>
<path d="M234.507 516.393L200.691 523.819L200.597 523.391C199.831 519.9 200.483 516.247 202.409 513.236C204.335 510.225 207.378 508.102 210.869 507.336L210.87 507.335L231.523 502.8L234.507 516.393Z" fill="#2F2E41"/>
<path d="M99.2661 367.891L46.2317 379.333C36.0602 360.153 33.7746 340.119 33.6899 321.173L86.724 309.731C85.9044 329.868 90.2205 349.882 99.2661 367.891V367.891Z" fill="#D62828"/>
<path d="M45.7883 331.792L45.3364 329.778L72.8977 324.208L73.3496 326.223L45.7883 331.792Z" fill="white"/>
<path d="M47.596 339.85L47.144 337.836L74.7053 332.266L75.1572 334.281L47.596 339.85Z" fill="white"/>
<path d="M49.4036 347.908L48.9517 345.893L76.5129 340.324L76.9648 342.338L49.4036 347.908Z" fill="white"/>
<path d="M51.2112 355.967L50.7593 353.952L78.3205 348.382L78.7724 350.397L51.2112 355.967Z" fill="white"/>
<path d="M53.0188 364.024L52.5669 362.01L80.1281 356.44L80.5801 358.454L53.0188 364.024Z" fill="white"/>
<path d="M220.184 320.883C221.013 319.646 221.561 318.243 221.788 316.771C222.016 315.3 221.919 313.797 221.503 312.367C221.087 310.937 220.362 309.616 219.381 308.497C218.399 307.378 217.184 306.487 215.821 305.889L216.302 282.62L202.236 278.879L202.019 311.748C201.165 314.105 201.205 316.693 202.131 319.023C203.058 321.352 204.806 323.26 207.045 324.386C209.284 325.512 211.859 325.778 214.28 325.132C216.702 324.486 218.803 322.975 220.184 320.883L220.184 320.883Z" fill="#FFB7B7"/>
<path d="M85.0854 104.564L30.8453 103.336C25.4198 82.3138 27.8624 62.2979 32.1919 43.8533L86.4318 45.0816C80.9456 64.4738 80.4822 84.9434 85.0854 104.564V104.564Z" fill="#D62828"/>
<path d="M41.4844 56.9991L41.5133 54.9343L69.614 55.9391L69.5842 58.0039L41.4844 56.9991Z" fill="white"/>
<path d="M41.3662 65.2565L41.3951 63.1926L69.4958 64.1974L69.4661 66.2613L41.3662 65.2565Z" fill="white"/>
<path d="M41.2471 73.5145L41.2768 71.4497L69.3776 72.4545L69.3478 74.5192L41.2471 73.5145Z" fill="white"/>
<path d="M41.1289 81.7718L41.1587 79.707L69.2594 80.7118L69.2296 82.7766L41.1289 81.7718Z" fill="white"/>
<path d="M41.0107 90.029L41.0405 87.9651L69.1404 88.9699L69.1115 91.0337L41.0107 90.029Z" fill="white"/>
<path d="M110.973 39.3493C121.836 39.3493 130.642 30.5406 130.642 19.6746C130.642 8.80864 121.836 0 110.973 0C100.109 0 91.3027 8.80864 91.3027 19.6746C91.3027 30.5406 100.109 39.3493 110.973 39.3493Z" fill="#D62828"/>
<path d="M110.271 29.2614L102.822 20.1535L103.994 19.1952L110.161 26.7359L120.939 10.9248L122.189 11.7772L110.271 29.2614Z" fill="white"/>
<path d="M447.81 287.712H341.122V192.764H447.81V287.712Z" fill="white"/>
<path d="M450 289.902H338.933V190.574H450V289.902ZM343.312 285.522H445.621V194.954H343.312V285.522Z" fill="#E6E6E6"/>
<path d="M447.81 120.394H341.122V25.4465H447.81V120.394Z" fill="white"/>
<path d="M450 122.584H338.933V23.2566H450V122.584ZM343.312 118.204H445.621V27.6366H343.312V118.204Z" fill="#E6E6E6"/>
<path d="M277.906 287.712H171.218V192.764H277.906V287.712Z" fill="white"/>
<path d="M280.096 289.902H169.028V190.574H280.096V289.902ZM173.407 285.522H275.717V194.954H173.407V285.522Z" fill="#CCCCCC"/>
<path d="M108.878 287.712H2.18945V192.764H108.878V287.712Z" fill="white"/>
<path d="M111.068 289.902H0V190.574H111.068V289.902ZM4.37897 285.522H106.689V194.954H4.37897V285.522Z" fill="#E6E6E6"/>
<path d="M277.906 120.394H171.218V25.4465H277.906V120.394Z" fill="white"/>
<path d="M280.096 122.584H169.028V23.2566H280.096V122.584ZM173.407 118.204H275.717V27.6366H173.407V118.204Z" fill="#E6E6E6"/>
<path d="M263.096 562.185L277.349 534.555C303.651 538.882 308.293 537.998 331.277 535.013L337.388 565C312.808 561.276 287.887 560.331 263.096 562.185V562.185Z" fill="#E6E6E6"/>
<path d="M322.558 557.202L322.112 541.667L323.744 541.728L324.191 557.263L322.558 557.202Z" fill="white"/>
<path d="M316.028 556.954L315.58 541.419L317.213 541.481L317.66 557.016L316.028 556.954Z" fill="white"/>
<path d="M309.496 556.707L309.049 541.172L310.682 541.233L311.129 556.769L309.496 556.707Z" fill="white"/>
<path d="M109.739 284.247C109.739 284.247 104.562 286.318 109.739 365.016L111.809 493.419H132.514L155.819 318.92L184.277 400.223L210.158 496.526L230.863 491.348C230.863 491.348 209.123 296.673 190.488 284.247C171.854 271.821 109.739 284.247 109.739 284.247Z" fill="#2F2E41"/>
<path d="M151.317 124.844C163.201 124.844 172.835 115.207 172.835 103.321C172.835 91.4338 163.201 81.7976 151.317 81.7976C139.433 81.7976 129.799 91.4338 129.799 103.321C129.799 115.207 139.433 124.844 151.317 124.844Z" fill="#FFB8B8"/>
<path d="M171.854 138.24C171.854 138.24 153.219 128.921 135.62 135.134C118.021 141.347 108.703 148.595 108.703 148.595L120.091 208.655L104.562 289.424C104.562 289.424 184.277 283.211 191.524 289.424C198.771 295.637 198.771 282.176 198.771 282.176L192.559 205.548L203.947 156.879L171.854 138.24Z" fill="#3F3D56"/>
<path d="M133.006 101.836L137.561 113.477C139.427 118.247 141.565 123.351 145.941 126.013C151.343 129.3 158.557 127.697 163.783 124.136C168.483 120.934 172.091 116.37 174.122 111.056C176.153 105.743 176.51 99.9353 175.145 94.4132C173.779 88.8912 170.757 83.9192 166.485 80.1652C162.212 76.4113 156.893 74.055 151.242 73.4131L151.026 77.3092L146.246 73.3018C145.893 73.9085 145.406 74.4272 144.824 74.8189C144.241 75.2106 143.577 75.4653 142.882 75.5636C142.187 75.6619 141.478 75.6014 140.81 75.3866C140.142 75.1719 139.53 74.8084 139.023 74.3235C140.278 76.9268 138.829 80.1019 136.736 82.0961C134.165 84.546 126.812 87.4904 127.117 91.8698C127.321 94.7925 131.821 98.8073 133.006 101.836Z" fill="#2F2E41"/>
<path d="M93.2039 322.261C94.3465 321.307 95.2659 320.114 95.8975 318.765C96.5291 317.417 96.8575 315.947 96.8595 314.458C96.8615 312.969 96.5371 311.498 95.9092 310.148C95.2813 308.798 94.365 307.602 93.2251 306.644L100.218 284.447L87.7677 276.906L78.3332 308.392C76.852 310.415 76.1639 312.91 76.3993 315.406C76.6346 317.901 77.777 320.224 79.61 321.934C81.443 323.643 83.8393 324.621 86.3447 324.681C88.8501 324.741 91.2907 323.88 93.2039 322.261V322.261Z" fill="#FFB7B7"/>
<path d="M115.95 148.595H108.703C108.703 148.595 97.3155 155.844 97.3155 166.199C97.3155 176.554 80.7515 297.708 80.7515 297.708L98.3508 300.815L113.88 215.903L125.267 193.122L115.95 148.595Z" fill="#3F3D56"/>
<path d="M184.277 156.879H203.947C203.947 156.879 210.158 163.092 213.264 177.59C216.37 192.087 219.476 249.04 219.476 249.04L217.405 300.815H201.876L199.806 233.507L189.453 190.016L184.277 156.879Z" fill="#3F3D56"/>
<path d="M336.215 524.781H2.5379C2.30563 524.781 2.08285 524.689 1.91861 524.525C1.75437 524.36 1.66211 524.138 1.66211 523.905C1.66211 523.673 1.75437 523.45 1.91861 523.286C2.08285 523.122 2.30563 523.029 2.5379 523.029H336.215C336.448 523.029 336.671 523.122 336.835 523.286C336.999 523.45 337.091 523.673 337.091 523.905C337.091 524.138 336.999 524.36 336.835 524.525C336.671 524.689 336.448 524.781 336.215 524.781Z" fill="#CBCBCB"/>
</g>
<defs>
<clipPath id="clip0_64_366">
<rect width="450" height="565" fill="white"/>
</clipPath>
</defs>
</svg>
