<svg width="698" height="427" viewBox="0 0 698 427" fill="none" xmlns="http://www.w3.org/2000/svg">
<g clip-path="url(#clip0_64_410)">
<path d="M445.354 224.105C448.192 224.892 451.221 224.612 453.866 223.319C456.512 222.026 458.59 219.809 459.707 217.088C460.825 214.367 460.904 211.331 459.929 208.556C458.954 205.781 456.994 203.46 454.419 202.031L428.88 173.105L407.279 177.764L437.661 207.473C436.914 209.052 436.523 210.776 436.516 212.523C436.508 214.269 436.885 215.996 437.618 217.582C438.352 219.168 439.424 220.574 440.761 221.701C442.098 222.828 443.665 223.648 445.354 224.105L445.354 224.105Z" fill="#A0616A"/>
<path d="M361.331 120.547L424.984 200.315L444.387 191.422L369.569 75.1343L361.331 120.547Z" fill="#3F3D56"/>
<path d="M650.711 396.237C654.7 388.511 652.533 378.763 647.567 371.623C642.602 364.482 635.269 359.394 628.098 354.465L618.126 347.609L622.889 371.476C624.497 379.546 626.479 388.259 632.791 393.549C635.27 395.578 638.23 396.935 641.386 397.49C644.543 398.045 647.79 397.779 650.813 396.718" fill="#E6E6E6"/>
<path d="M649.957 425.613C649.906 425.795 649.785 425.95 649.619 426.044C649.454 426.137 649.259 426.162 649.076 426.113C648.895 426.058 648.743 425.936 648.65 425.772C648.557 425.608 648.53 425.415 648.575 425.232C649.131 421.191 649.682 417.147 649.942 413.074C650.375 406.341 649.975 399.431 647.478 393.092C645.218 387.392 641.203 382.556 636.012 379.281C635.234 378.79 635.953 377.553 636.736 378.045C639.736 379.932 642.383 382.327 644.559 385.123C648.658 390.399 650.671 396.834 651.3 403.422C652.008 410.84 650.97 418.274 649.961 425.614L649.957 425.613Z" fill="#F2F2F2"/>
<path d="M548.466 380.284C579.882 399.585 569.41 425.32 569.41 425.32L548.466 380.284Z" fill="#E6E6E6"/>
<path d="M610.209 406.667C585.483 406.51 582.289 424.852 582.289 424.852L610.209 406.667Z" fill="#E6E6E6"/>
<path d="M211.316 426.841C215.171 426.841 218.297 423.721 218.297 419.871C218.297 416.022 215.171 412.901 211.316 412.901C207.46 412.901 204.334 416.022 204.334 419.871C204.334 423.721 207.46 426.841 211.316 426.841Z" fill="#3F3D56"/>
<path d="M216.393 279.52C216.393 279.52 232.895 229.463 234.165 225.978C235.434 222.493 248.762 228.195 252.253 229.146C255.744 230.096 254.792 233.581 254.792 233.581L237.021 284.906L242.415 287.441L258.917 235.799C268.438 225.978 261.456 225.344 261.456 225.344C261.456 225.344 241.146 218.374 233.53 217.74C225.914 217.107 228.77 226.294 228.77 226.294L210.364 275.085L216.393 279.52Z" fill="#3F3D56"/>
<path d="M256.061 291.56L256.058 291.556C253.716 288.204 250.391 285.659 246.541 284.273C246.404 284.222 246.245 284.165 246.065 284.102C237.322 281.051 176.408 264.63 176.408 264.63C176.408 264.63 164.349 260.194 158.954 272.234C153.559 284.273 121.507 384.071 121.507 384.071C121.507 384.071 184.195 417.54 202.471 421.183C203.599 421.455 204.764 421.547 205.921 421.456C209.027 421.026 212.085 420.297 215.051 419.279C218.331 418.212 221.451 416.706 224.327 414.803L259.869 308.668C259.869 308.668 264.947 296.946 256.061 291.56Z" fill="#D62828"/>
<path d="M256.061 291.56L256.058 291.556C253.716 288.204 250.391 285.659 246.541 284.273C246.404 284.222 246.245 284.165 246.065 284.102C248.94 289.133 250.031 296.945 250.031 296.945C250.031 296.945 215.124 400.546 211.95 410.367C209.532 417.853 204.655 420.398 202.471 421.183C203.6 421.455 204.764 421.547 205.921 421.456C209.027 421.026 212.085 420.297 215.051 419.279C215.918 418.286 216.687 417.211 217.345 416.07C217.345 416.07 252.888 309.935 256.061 304.866C259.235 299.797 256.061 291.56 256.061 291.56Z" fill="#3F3D56"/>
<path d="M189.895 427C193.751 427 196.877 423.88 196.877 420.03C196.877 416.181 193.751 413.06 189.895 413.06C186.039 413.06 182.914 416.181 182.914 420.03C182.914 423.88 186.039 427 189.895 427Z" fill="#3F3D56"/>
<path d="M122.142 397.694C125.998 397.694 129.124 394.573 129.124 390.724C129.124 386.875 125.998 383.754 122.142 383.754C118.286 383.754 115.161 386.875 115.161 390.724C115.161 394.573 118.286 397.694 122.142 397.694Z" fill="#3F3D56"/>
<path d="M245.203 230.22C242.395 231.108 239.358 230.936 236.668 229.738C233.978 228.539 231.822 226.398 230.609 223.718C229.395 221.039 229.208 218.008 230.083 215.2C230.958 212.392 232.834 210.002 235.356 208.483L259.847 178.667L281.6 182.555L252.298 213.325C253.101 214.877 253.553 216.586 253.623 218.331C253.692 220.077 253.378 221.816 252.701 223.427C252.025 225.037 251.003 226.48 249.707 227.654C248.412 228.828 246.874 229.704 245.203 230.22L245.203 230.22Z" fill="#A0616A"/>
<path d="M412.121 361.415L427.291 361.177L425.466 412.798H412.123L412.121 361.415Z" fill="#A0616A"/>
<path d="M408.719 408.449L434.998 408.448H434.999C439.44 408.448 443.7 410.21 446.84 413.345C449.981 416.481 451.745 420.733 451.746 425.167V425.71L408.72 425.712L408.719 408.449Z" fill="#2F2E41"/>
<path d="M311.677 347.724L328.249 358.346L295.1 398.16L283.871 390.963L311.677 347.724Z" fill="#A0616A"/>
<path d="M283.361 385.467L305.474 399.641L305.475 399.641C309.212 402.037 311.843 405.817 312.789 410.149C313.735 414.482 312.918 419.012 310.519 422.743L310.225 423.2L274.019 399.994L283.361 385.467Z" fill="#2F2E41"/>
<path d="M305.773 190.096C305.773 190.096 342.594 68.0023 354.427 66.3524C366.261 64.7025 385.327 97.6803 385.327 97.6803C410.047 129.168 435.537 231.164 435.537 231.164C435.537 231.164 393.044 233.819 361.981 250.318C330.919 266.817 294.261 249.483 294.261 249.483L305.773 190.096Z" fill="#3F3D56"/>
<path opacity="0.1" d="M305.773 190.096C305.773 190.096 342.594 68.0022 354.427 66.3523C366.261 64.7024 380.484 98.0148 380.484 98.0148C392.802 148.844 435.537 231.164 435.537 231.164C435.537 231.164 393.044 233.819 361.981 250.318C330.919 266.817 294.261 249.483 294.261 249.483L305.773 190.096Z" fill="black"/>
<path d="M335.982 153.567V214.918L328.75 303.79L292.618 371.015L309.863 383.313L359.133 319.367L378.621 255.872L409.225 396.43L432.218 394.79L416.25 199.909L385.947 145.055L335.982 153.567Z" fill="#2F2E41"/>
<path d="M373.107 94.226C384.603 105.703 373.928 118.001 373.928 118.001L387.067 147.514L335.333 161.451L317.253 80.7987L329.571 67.6816C354.206 66.8618 354.22 66.3521 354.22 66.3521C358.536 70.5691 373.107 94.226 373.107 94.226Z" fill="#CCCCCC"/>
<path d="M314.884 72.6536C310.608 75.7937 307.608 80.3676 306.435 85.5366C305.262 90.7057 305.994 96.1236 308.498 100.797C314.425 112.093 320.8 129.59 317.513 148.798C311.564 183.56 292.495 209.971 281.872 218.453C278.174 221.406 278.045 225.706 278.588 228.793C280.104 237.418 288.481 247.205 294.274 249.167C294.664 249.297 295.073 249.361 295.484 249.357C304.896 249.36 328.049 219.433 354.654 160.972C371.224 124.563 359.198 95.37 346.192 77.2911C344.485 74.9256 342.324 72.9218 339.836 71.3957C337.347 69.8697 334.58 68.8518 331.695 68.4009C328.81 67.95 325.863 68.0751 323.027 68.7691C320.19 69.463 317.52 70.7119 315.17 72.4434L314.884 72.6536Z" fill="#3F3D56"/>
<path d="M339.425 107.852L264.711 205.722L245.003 197.524L315.624 78.6494L339.425 107.852Z" fill="#3F3D56"/>
<path d="M361.587 55.7264H310.198C309.141 55.7252 308.128 55.3054 307.381 54.5592C306.633 53.813 306.213 52.8012 306.211 51.7459V29.6323C306.209 25.7396 306.976 21.8846 308.466 18.2877C309.957 14.6907 312.143 11.4223 314.899 8.66899C317.656 5.91572 320.928 3.73162 324.531 2.24149C328.133 0.751349 331.994 -0.015625 335.893 -0.015625C339.792 -0.015625 343.653 0.751349 347.255 2.24149C350.857 3.73162 354.13 5.91572 356.886 8.66899C359.642 11.4223 361.828 14.6907 363.319 18.2877C364.81 21.8846 365.576 25.7396 365.574 29.6323V51.7459C365.573 52.8012 365.152 53.813 364.405 54.5592C363.657 55.3054 362.644 55.7252 361.587 55.7264V55.7264Z" fill="#2F2E41"/>
<path d="M361.087 43.907C366.851 33.3788 362.976 20.1784 352.43 14.4232C341.884 8.66791 328.662 12.5372 322.897 23.0654C317.133 33.5936 321.008 46.794 331.554 52.5492C342.1 58.3044 355.322 54.4352 361.087 43.907Z" fill="#A0616A"/>
<path d="M372.596 31.8437H341.173L340.851 27.3397L339.24 31.8437H334.401L333.763 22.917L330.57 31.8437H321.208V31.4014C321.215 25.1868 323.69 19.2287 328.092 14.8343C332.494 10.4398 338.462 7.96796 344.687 7.96094H349.117C355.342 7.96795 361.31 10.4398 365.711 14.8342C370.113 19.2287 372.589 25.1868 372.596 31.4014V31.8437Z" fill="#2F2E41"/>
<path d="M340.916 59.8543C340.679 59.854 340.443 59.8332 340.21 59.7921L317.201 55.7391V17.7744H342.53L341.903 18.5043C333.178 28.6628 339.751 45.1349 344.446 54.0494C344.792 54.7023 344.946 55.4396 344.891 56.1762C344.836 56.9128 344.573 57.6188 344.134 58.213C343.765 58.7212 343.282 59.1348 342.723 59.4201C342.163 59.7055 341.544 59.8542 340.916 59.8543Z" fill="#2F2E41"/>
<path d="M0 426.18C0 425.963 0.0865159 425.754 0.240516 425.6C0.394517 425.447 0.603387 425.36 0.821176 425.36H697.179C697.397 425.36 697.606 425.447 697.76 425.6C697.914 425.754 698 425.963 698 426.18C698 426.398 697.914 426.606 697.76 426.76C697.606 426.914 697.397 427 697.179 427H0.821176C0.603387 427 0.394517 426.914 0.240516 426.76C0.0865159 426.606 0 426.398 0 426.18Z" fill="#CBCBCB"/>
</g>
<defs>
<clipPath id="clip0_64_410">
<rect width="698" height="427" fill="white"/>
</clipPath>
</defs>
</svg>
