<svg width="730" height="663" viewBox="0 0 730 663" fill="none" xmlns="http://www.w3.org/2000/svg">
<g clip-path="url(#clip0_1_41)">
<path d="M350.876 132.85C359.004 124.581 369.859 122.071 375.121 127.243C380.384 132.415 378.061 143.309 369.93 151.58C366.727 154.928 362.769 157.461 358.386 158.966L323.509 193.568L307.618 176.858L343.687 144.521C345.117 140.113 347.582 136.111 350.876 132.85V132.85Z" fill="#FFB6B6"/>
<path d="M239.335 104.288L275.903 185.397L334.296 153.795L355.194 164.884C355.194 164.884 307.459 244.673 274.774 235.59C242.09 226.507 184.051 144.149 194.508 118.731C204.965 93.3123 239.335 104.288 239.335 104.288Z" fill="#E6E6E6"/>
<path d="M408.847 150.072C400.358 142.175 397.552 131.394 402.58 125.994C407.607 120.593 418.563 122.618 427.054 130.519C430.489 133.628 433.129 137.515 434.754 141.854L470.3 175.769L454.026 192.107L420.712 156.939C416.265 155.63 412.196 153.275 408.847 150.072Z" fill="#A0616A"/>
<path d="M587.898 155.3L519.288 228.332C519.288 228.332 503.88 243.574 478.531 221.594C453.182 199.613 425 163.551 425 163.551L440.81 146.347L468.816 171.328C468.816 171.328 485.443 178.017 486.599 182.345C487.755 186.673 484.523 188.463 489.718 187.076C494.913 185.69 495.014 182.596 495.34 187.288C495.666 191.98 492.492 197.464 498.494 192.152C504.496 186.84 506.286 190.072 506.286 190.072L550.138 131.996C550.138 131.996 578.473 109.593 586.62 129.675C594.766 149.757 587.898 155.3 587.898 155.3V155.3Z" fill="#D62828"/>
<path d="M223.3 644.842L249.964 644.839L262.648 542.011L223.295 542.014L223.3 644.842Z" fill="#FFB6B6"/>
<path d="M314.654 644.237C315.484 645.635 315.922 650.147 315.922 651.773C315.922 656.77 311.871 660.821 306.873 660.821H224.298C220.888 660.821 218.124 658.058 218.124 654.649V651.211C218.124 651.211 214.039 640.881 222.449 628.148C222.449 628.148 232.902 638.118 248.521 622.502L253.126 614.16L286.467 638.538L304.947 640.813C308.99 641.31 312.574 640.735 314.654 644.237H314.654Z" fill="#2F2E41"/>
<path d="M530.613 170.318H596.692V72.6979L530.613 72.6979V170.318Z" fill="#2F2E41"/>
<path d="M581.86 140.552L579.545 112.592H548.776L541.955 142.215L581.86 140.552Z" fill="#A0616A"/>
<path opacity="0.1" d="M581.86 140.552L579.545 112.592H548.776L541.955 142.215L581.86 140.552Z" fill="black"/>
<path d="M243.477 109.493L244.016 73.5366L221.839 59.7146L197.723 89.2074L243.477 109.493Z" fill="#FFB6B6"/>
<path opacity="0.1" d="M243.477 109.493L244.912 74.4326L221.839 59.7146L229.678 103.104L243.477 109.493Z" fill="black"/>
<path d="M559.315 121.489C577.891 121.489 592.949 106.433 592.949 87.8615C592.949 69.2898 577.891 54.2344 559.315 54.2344C540.74 54.2344 525.682 69.2898 525.682 87.8615C525.682 106.433 540.74 121.489 559.315 121.489Z" fill="#A0616A"/>
<path d="M550.831 52.4836C550.831 52.4836 550.831 38.6787 563.653 41.6369C576.474 44.5951 580.419 49.5254 580.419 49.5254C580.419 49.5254 585.35 57.4139 593.24 58.4C601.13 59.386 608.034 82.0655 607.048 86.9959C606.062 91.9262 601.13 104.745 608.034 110.661C614.938 116.578 624.8 125.452 621.842 134.327C618.883 143.202 610.007 165.881 610.007 165.881C610.007 165.881 634.764 169.499 632.741 184.946C632.741 184.946 620.855 175.742 605.075 175.742C589.295 175.742 591.268 147.119 591.268 147.119C591.268 147.119 590.281 129.397 587.323 124.466C584.364 119.536 588.309 91.9262 573.515 77.1352C558.721 62.3442 550.831 52.4836 550.831 52.4836V52.4836Z" fill="#2F2E41"/>
<path d="M554.776 49.5254C554.776 49.5254 536.038 53.4697 529.134 72.2049C522.23 90.9401 525.717 94.4263 525.717 94.4263C525.717 94.4263 524.19 105.708 515.813 109.664C507.436 113.62 514.34 130.383 514.34 130.383C514.34 130.383 512.367 147.146 485.739 153.062C459.11 158.979 519.132 204.348 519.132 204.348C519.132 204.348 514.816 182.935 542.431 181.949C570.046 180.963 537.024 130.383 537.024 130.383L534.065 97.8426C534.065 97.8426 539.983 60.3721 557.735 55.4418C575.488 50.5114 554.776 49.5254 554.776 49.5254L554.776 49.5254Z" fill="#2F2E41"/>
<path d="M243.546 84.7257C265.329 84.7257 282.988 67.0704 282.988 45.2914C282.988 23.5124 265.329 5.85706 243.546 5.85706C221.763 5.85706 204.104 23.5124 204.104 45.2914C204.104 67.0704 221.763 84.7257 243.546 84.7257Z" fill="#FFB6B6"/>
<path d="M297.337 347.256L260.595 597.232H214.497L220.627 454.539L223.853 379.511L214.497 343.797C214.497 343.797 210.232 335.859 206.638 326.236C202.588 315.377 199.388 302.359 204.138 296.185C205.885 293.91 210.429 292.225 216.603 290.971C220.376 290.2 224.767 289.6 229.508 289.134C256.768 286.437 295.544 288.122 295.544 288.122L296.53 320.645L297.077 338.807L297.337 347.256Z" fill="#2F2E41"/>
<path d="M71.4852 605.015L94.9749 617.629L154.825 533.049L120.157 514.43L71.4852 605.015Z" fill="#FFB6B6"/>
<path d="M152.246 647.71C152.316 649.334 150.566 653.516 149.796 654.948C147.431 659.35 141.944 661.002 137.541 658.637L64.7997 619.563C61.7961 617.949 60.6693 614.207 62.2831 611.204L63.9102 608.176C63.9102 608.176 65.202 597.143 78.638 589.906C78.638 589.906 83.1262 603.634 104.277 597.269L112.284 592.1L130.113 629.351L145.316 640.099C148.642 642.451 152.071 643.641 152.246 647.71L152.246 647.71Z" fill="#2F2E41"/>
<path d="M297.077 338.807L277.577 377.898L220.627 454.539L126.873 580.719L86.2683 558.911L197.569 371.546L206.244 335.653C206.244 335.653 206.244 331.773 206.638 326.236C207.409 315.279 209.721 297.816 216.603 290.971C217.535 290.039 218.548 289.304 219.65 288.812C221.72 287.88 225.161 288.104 229.508 289.134C247.664 293.471 281.547 312.098 296.53 320.645L297.077 338.807H297.077Z" fill="#2F2E41"/>
<path d="M579.354 647.978L556.428 647.976L545.522 559.563L579.359 559.566L579.354 647.978Z" fill="#A0616A"/>
<path d="M500.807 647.458C500.093 648.66 499.717 652.54 499.717 653.938C499.717 658.234 503.2 661.717 507.498 661.717H578.497C581.428 661.717 583.805 659.341 583.805 656.41V653.455C583.805 653.455 587.317 644.572 580.086 633.624C580.086 633.624 571.099 642.197 557.67 628.77L553.709 621.597L525.043 642.558L509.154 644.514C505.678 644.941 502.595 644.447 500.807 647.458H500.807H500.807Z" fill="#2F2E41"/>
<path d="M669.669 620.966L648.475 629.707L604.663 552.139L635.942 539.237L669.669 620.966Z" fill="#A0616A"/>
<path d="M596.862 650.441C596.661 651.825 597.793 655.554 598.326 656.847C599.965 660.818 604.515 662.709 608.487 661.07L674.118 633.993C676.828 632.875 678.118 629.772 677 627.063L675.872 624.331C675.872 624.331 675.73 614.781 664.869 607.418C664.869 607.418 659.832 618.77 642.295 611.48L635.898 606.36L617.396 636.669L603.454 644.536C600.404 646.257 597.367 646.976 596.862 650.441L596.862 650.441H596.862Z" fill="#2F2E41"/>
<path d="M589.873 344.693L580.517 380.407L583.009 438.358L587.14 534.612L587.256 537.327L587.722 548.15L589.873 598.128H543.776L523.254 458.508L507.034 348.152L508.736 291.956L508.826 289.018C508.826 289.018 591.271 285.434 600.233 297.081C609.194 308.729 589.873 344.693 589.873 344.693H589.873Z" fill="#2F2E41"/>
<path d="M654.01 562.199L646.196 566.24L617.295 581.194L613.065 583.38L587.722 548.15L523.254 458.509L507.034 348.152L508.737 291.956C516.031 289.636 521.865 288.686 524.822 290.066C538.139 296.293 537.503 337.113 537.503 337.113L545.613 373.131L583.009 438.358L654.01 562.199Z" fill="#2F2E41"/>
<path d="M487.333 573.22C486.74 571.405 482.244 572.204 481.812 570.581C481.382 568.963 485.696 567.607 489.005 563.049C489.602 562.227 493.362 557.047 491.92 554.868C489.186 550.739 470.168 561.024 465.602 555.252C464.601 553.986 464.188 551.811 461.204 547.764C460.016 546.154 459.255 545.377 458.344 545.4C457.053 545.433 456.591 547.048 454.561 549.974C451.517 554.362 450.418 553.811 448.413 557.407C446.924 560.076 446.748 561.781 445.675 561.882C444.155 562.024 443.528 558.701 441.672 558.572C439.777 558.44 437.882 561.724 436.942 564.29C435.179 569.104 436.271 572.783 436.513 576.451C436.776 580.436 436.158 586.27 431.827 593.757L390.977 658.83C399.75 645.564 424.653 609.39 434.687 596.122C437.583 592.291 440.696 588.445 445.487 587.721C450.099 587.025 455.711 589.306 463.545 589.173C464.46 589.158 467.006 589.082 467.625 587.733C468.137 586.618 466.866 585.648 467.328 584.599C467.948 583.193 470.739 583.796 474.543 582.862C477.225 582.204 479.047 581.115 480.613 580.18C481.086 579.897 488.123 575.636 487.333 573.22H487.333Z" fill="#F2F2F2"/>
<path d="M380.339 588.413C379.276 588.18 378.371 590.617 377.45 590.36C376.532 590.105 377.111 587.596 375.828 584.657C375.597 584.128 374.139 580.788 372.653 580.867C369.837 581.017 369.399 593.317 365.248 593.892C364.337 594.018 363.151 593.593 360.303 593.89C359.17 594.008 358.569 594.158 358.318 594.611C357.961 595.254 358.621 595.947 359.471 597.787C360.747 600.547 360.16 600.927 361.346 602.949C362.227 604.449 363.013 605.028 362.753 605.584C362.384 606.37 360.572 605.719 359.973 606.593C359.362 607.485 360.427 609.362 361.415 610.563C363.27 612.818 365.391 613.344 367.261 614.283C369.294 615.304 371.979 617.29 374.405 621.576L394.563 660.397C390.582 652.264 380.009 629.607 376.391 620.855C375.346 618.328 374.356 615.691 375.383 613.131C376.372 610.667 379.111 608.571 381.306 604.689C381.563 604.236 382.26 602.964 381.777 602.271C381.377 601.698 380.534 602.042 380.153 601.513C379.641 600.802 380.743 599.607 381.382 597.471C381.832 595.965 381.824 594.757 381.816 593.718C381.814 593.405 381.752 588.722 380.339 588.412L380.339 588.413Z" fill="#F2F2F2"/>
<path d="M400.449 597.885L401.082 592.036L401.471 591.668C403.269 589.97 404.393 588.17 404.815 586.317C404.882 586.023 404.934 585.725 404.988 585.422C405.198 584.219 405.459 582.724 406.616 581.171C407.263 580.306 408.975 578.351 410.74 579.034C411.217 579.213 411.538 579.522 411.762 579.849C411.818 579.792 411.875 579.735 411.937 579.674C412.7 578.933 413.233 578.662 413.747 578.4C414.142 578.199 414.55 577.992 415.24 577.44C415.543 577.198 415.785 576.98 415.989 576.797C416.609 576.244 417.401 575.597 418.487 575.853C419.637 576.168 420.032 577.265 420.294 577.992C420.761 579.287 420.905 580.179 421 580.77C421.035 580.985 421.074 581.229 421.104 581.308C421.356 581.942 424.518 582.106 425.707 582.175C428.381 582.32 430.695 582.446 431.251 584.276C431.651 585.586 430.818 587.014 428.707 588.634C428.049 589.138 427.391 589.486 426.819 589.746C427.171 590.079 427.452 590.532 427.469 591.149C427.508 592.61 426.009 593.73 423.016 594.486C422.272 594.676 421.271 594.927 419.962 594.864C419.345 594.833 418.805 594.739 418.345 594.651C418.276 594.913 418.15 595.186 417.923 595.444C417.257 596.207 416.181 596.401 414.721 595.971C413.108 595.522 411.834 594.911 410.71 594.374C409.728 593.906 408.882 593.506 408.171 593.397C406.85 593.212 405.618 594.028 404.143 595.113L400.449 597.885H400.448H400.449Z" fill="#F2F2F2"/>
<path d="M410.993 564.572L405.174 565.443L404.72 565.16C402.62 563.852 400.594 563.221 398.695 563.283C398.393 563.292 398.091 563.318 397.784 563.343C396.567 563.445 395.055 563.571 393.259 562.847C392.258 562.44 389.932 561.281 390.145 559.4C390.197 558.894 390.414 558.504 390.675 558.205C390.605 558.165 390.536 558.124 390.461 558.08C389.551 557.531 389.153 557.084 388.769 556.653C388.475 556.322 388.171 555.98 387.462 555.453C387.151 555.221 386.879 555.042 386.65 554.891C385.958 554.432 385.13 553.83 385.103 552.715C385.115 551.523 386.077 550.863 386.714 550.425C387.849 549.645 388.674 549.279 389.222 549.037C389.422 548.949 389.647 548.849 389.716 548.8C390.266 548.395 389.623 545.296 389.388 544.129C388.85 541.506 388.384 539.236 390.014 538.234C391.18 537.516 392.773 537.958 394.876 539.589C395.531 540.098 396.034 540.645 396.431 541.133C396.664 540.708 397.031 540.322 397.623 540.149C399.027 539.741 400.491 540.905 401.981 543.609C402.354 544.28 402.85 545.184 403.121 546.466C403.248 547.07 403.294 547.617 403.325 548.084C403.596 548.084 403.892 548.137 404.2 548.291C405.107 548.742 405.567 549.733 405.522 551.255C405.496 552.928 405.228 554.315 404.994 555.538C404.791 556.607 404.618 557.527 404.693 558.242C404.849 559.566 405.951 560.551 407.375 561.702L410.993 564.572H410.993V564.572Z" fill="#F2F2F2"/>
<path d="M411.778 547.1L412.411 541.252L412.8 540.884C414.598 539.185 415.722 537.385 416.144 535.533C416.211 535.238 416.264 534.941 416.317 534.637C416.527 533.435 416.788 531.94 417.945 530.387C418.592 529.522 420.304 527.567 422.069 528.25C422.546 528.428 422.868 528.737 423.091 529.065C423.147 529.008 423.205 528.951 423.266 528.89C424.029 528.149 424.562 527.877 425.076 527.616C425.471 527.415 425.879 527.208 426.569 526.656C426.872 526.414 427.114 526.196 427.318 526.013C427.938 525.46 428.73 524.812 429.816 525.069C430.966 525.383 431.361 526.481 431.623 527.207C432.09 528.503 432.234 529.394 432.329 529.985C432.364 530.201 432.403 530.444 432.433 530.523C432.685 531.158 435.847 531.322 437.036 531.391C439.71 531.536 442.024 531.661 442.58 533.492C442.98 534.801 442.148 536.23 440.036 537.85C439.378 538.354 438.721 538.702 438.148 538.962C438.5 539.295 438.781 539.748 438.798 540.365C438.837 541.825 437.338 542.946 434.345 543.702C433.601 543.891 432.6 544.143 431.291 544.079C430.675 544.049 430.134 543.954 429.674 543.866C429.605 544.128 429.479 544.401 429.252 544.66C428.586 545.423 427.51 545.616 426.05 545.187C424.437 544.737 423.163 544.126 422.039 543.589C421.057 543.122 420.211 542.722 419.5 542.613C418.179 542.428 416.947 543.243 415.472 544.329L411.778 547.1H411.778Z" fill="#F2F2F2"/>
<path d="M392.908 659.163L391.88 658.147L391.898 656.702L391.88 658.147L390.45 657.995C390.456 657.861 390.447 657.546 390.436 657.055C390.381 654.365 390.211 646.176 391.351 633.595C392.148 624.812 393.478 615.897 395.306 607.092C397.138 598.274 399.038 591.713 400.564 586.44C401.716 582.462 402.879 578.69 404.014 575.015C407.043 565.197 409.903 555.923 411.675 545.345C412.071 542.983 412.894 538.068 411.209 532.266C410.231 528.901 408.557 525.734 406.231 522.855L408.482 521.038C411.049 524.219 412.9 527.726 413.986 531.462C415.855 537.895 414.958 543.251 414.527 545.825C412.724 556.59 409.836 565.953 406.777 575.865C405.647 579.527 404.488 583.283 403.342 587.244C401.829 592.469 399.945 598.973 398.138 607.678C396.331 616.377 395.017 625.183 394.229 633.855C393.104 646.278 393.273 654.345 393.328 656.995C393.357 658.41 393.363 658.706 392.908 659.163V659.163H392.908Z" fill="#F2F2F2"/>
<path d="M400.056 526.184C399.94 526.158 399.823 526.129 399.707 526.094C397.333 525.429 395.428 523.495 394.045 520.346C393.397 518.865 393.245 517.307 392.94 514.199C392.892 513.72 392.681 511.295 392.941 508.082C393.109 505.982 393.335 505.139 393.907 504.477C394.541 503.739 395.397 503.317 396.3 503.105C396.325 502.827 396.415 502.555 396.596 502.297C397.339 501.228 398.584 501.667 399.259 501.896C399.599 502.018 400.023 502.173 400.499 502.254C401.249 502.383 401.696 502.251 402.373 502.055C403.021 501.867 403.827 501.633 404.941 501.653C407.138 501.683 408.765 502.671 409.302 502.996C412.127 504.693 413.102 507.401 414.231 510.536C414.455 511.165 415.2 513.436 415.373 516.362C415.498 518.472 415.222 519.336 414.905 519.953C414.257 521.223 413.265 521.812 410.803 523.05C408.231 524.348 406.941 524.998 405.883 525.331C403.421 526.104 401.874 526.589 400.056 526.184V526.184Z" fill="#F2F2F2"/>
<path d="M730 661.948C730 662.529 729.529 663 728.948 663H0V660.897H728.948C729.529 660.897 730 661.368 730 661.948Z" fill="#E6E6E6"/>
<path d="M202.794 81.6004L247.601 103.104C247.601 103.104 295.096 243.771 295.096 250.939C295.096 258.107 308.538 262.586 300.473 270.65C292.408 278.714 315.485 285.543 303.05 291.984C290.616 298.425 213.046 333.657 204.421 330.48C180.632 321.717 205.429 289.519 205.429 289.519C205.429 289.519 187.559 275.13 190.248 267.962C192.936 260.795 174.117 123.711 174.117 123.711L202.794 81.6003V81.6004Z" fill="#E6E6E6"/>
<path d="M241.137 54.7366L246.21 64.8807C246.21 64.8807 251.283 46.6213 259.4 42.5637C267.517 38.506 268.532 32.4195 268.532 32.4195C268.532 32.4195 278.678 45.6069 285.78 42.5637C292.882 39.5204 295.926 37.4916 287.809 25.3186C279.692 13.1457 281.722 19.2321 281.722 19.2321C281.722 19.2321 274.619 9.08801 275.634 12.1313C276.649 15.1745 269.546 4.01594 269.546 7.05918C269.546 10.1024 264.473 0.972695 264.473 4.01594C264.473 7.05918 243.167 -3.08495 246.21 0.972708C249.254 5.03037 227.947 -7.1426 217.801 9.08801C207.655 25.3186 193.587 22.3171 198.592 32.4404C203.597 42.5636 201.568 69.9528 201.568 69.9528H215.56C215.56 69.9528 229.977 42.5636 241.137 54.7366V54.7366Z" fill="#2F2E41"/>
<path d="M539.743 140.735L540.564 140.503L580.966 129.087L613.227 172.989L591.719 264.379L599.785 301.113C599.785 301.113 534.366 284.09 508.378 298.425C508.378 298.425 506.586 290.256 508.378 286.277C510.17 282.298 512.859 265.74 510.17 258.34C507.482 250.939 515.547 215.996 515.547 215.996C515.547 215.996 512.859 192.701 524.509 181.053C536.158 169.406 539.743 140.735 539.743 140.735Z" fill="#D62828"/>
<path d="M503.05 305.756L361.082 235.216C360.375 234.865 359.759 234.381 359.247 233.779L337.096 207.678C335.627 205.947 335.309 203.504 336.286 201.454L377.822 114.326C378.55 112.799 379.905 111.672 381.539 111.233C383.175 110.794 384.911 111.091 386.307 112.048L486.427 180.713C488.483 182.122 489.401 184.678 488.712 187.073L468.385 257.798C467.829 259.733 468.538 261.844 470.148 263.051L510.361 293.205C512.526 294.829 513.274 297.791 512.14 300.248L510.868 303.003C510.208 304.433 509.027 305.508 507.541 306.032C506.912 306.253 506.262 306.364 505.616 306.364C504.737 306.363 503.863 306.16 503.05 305.756V305.756Z" fill="#D62828"/>
<path d="M501.917 288.588L462.397 255.714C462.056 255.428 461.788 255.078 461.599 254.693C461.241 253.967 461.169 253.098 461.438 252.301L483.958 186.42C484.541 184.718 483.913 182.818 482.426 181.797L388.6 117.574C387.641 116.911 386.44 116.705 385.311 117C384.173 117.296 383.232 118.066 382.712 119.115L343.156 199.421C342.556 200.63 342.601 202.019 343.264 203.175C343.345 203.336 343.443 203.488 343.56 203.632L363.454 229.884C363.839 230.385 364.341 230.797 364.906 231.075L497.589 295.307C498.144 295.576 498.745 295.711 499.345 295.711C500.384 295.711 501.424 295.307 502.195 294.528C502.284 294.429 502.374 294.34 502.464 294.232C503.091 293.471 503.413 292.494 503.369 291.5C503.315 290.371 502.786 289.313 501.917 288.588Z" fill="#F2F2F2"/>
<path d="M358.721 194.493C359.05 194.493 359.365 194.312 359.523 194L391.685 130.115C391.908 129.673 391.73 129.135 391.288 128.912C390.844 128.689 390.307 128.868 390.084 129.31L357.922 193.194C357.699 193.636 357.877 194.175 358.319 194.397C358.449 194.462 358.586 194.493 358.721 194.493Z" fill="#D62828"/>
<path d="M375.748 205.244C376.076 205.244 376.392 205.064 376.549 204.751L408.712 140.867C408.934 140.425 408.756 139.886 408.314 139.664C407.871 139.44 407.333 139.62 407.111 140.061L374.949 203.946C374.726 204.388 374.904 204.926 375.346 205.149C375.476 205.214 375.613 205.244 375.748 205.244Z" fill="#D62828"/>
<path d="M390.086 214.204C390.415 214.204 390.73 214.024 390.888 213.711L423.05 149.827C423.273 149.384 423.094 148.846 422.653 148.624C422.209 148.4 421.672 148.579 421.449 149.021L389.287 212.905C389.064 213.348 389.242 213.886 389.684 214.108C389.814 214.174 389.951 214.204 390.086 214.204V214.204Z" fill="#D62828"/>
<path d="M339.325 205.55C350.445 202.266 361.154 205.34 363.244 212.416C365.334 219.492 358.013 227.888 346.889 231.173C342.463 232.546 337.773 232.839 333.21 232.028L285.918 245.35L280.138 223.028L327.373 212.265C330.764 209.104 334.862 206.802 339.325 205.55Z" fill="#FFB6B6"/>
<path d="M255.677 126.442L248.265 215.1L314.66 215.814L327.546 235.652C327.546 235.652 247.071 282.239 222.907 258.435C198.742 234.63 187.99 134.457 209.475 117.31C230.959 100.164 255.677 126.442 255.677 126.442Z" fill="#E6E6E6"/>
<path d="M473.177 286.519C461.615 285.649 452.692 278.978 453.247 271.621C453.803 264.264 463.625 259.008 475.192 259.88C479.817 260.166 484.307 261.554 488.285 263.93L537.23 268.237L534.718 291.158L486.734 284.478C482.443 286.231 477.795 286.931 473.177 286.519Z" fill="#A0616A"/>
<path d="M616.317 178.847L608.32 278.724C608.32 278.724 605.8 300.247 572.273 298.898C538.746 297.549 494.213 286.967 494.213 286.967L495.822 263.659L533.298 265.694C533.298 265.694 550.463 260.541 554.069 263.201C557.675 265.861 556.268 269.277 559.46 264.951C562.652 260.625 560.799 258.145 563.984 261.607C567.168 265.069 568.113 271.334 569.485 263.438C570.857 255.543 574.273 256.95 574.273 256.95L572.268 184.21C572.268 184.21 580.415 149.023 599.318 159.627C618.221 170.23 616.317 178.847 616.317 178.847Z" fill="#D62828"/>
</g>
<defs>
<clipPath id="clip0_1_41">
<rect width="730" height="663" fill="white"/>
</clipPath>
</defs>
</svg>
