<svg width="40" height="40" viewBox="0 0 40 40" fill="none" xmlns="http://www.w3.org/2000/svg">
<path d="M35 29.495C35 30.035 34.8798 30.59 34.6244 31.13C34.3691 31.67 34.0386 32.18 33.6029 32.66C32.8668 33.47 32.0556 34.055 31.1392 34.43C30.2379 34.805 29.2614 35 28.2098 35C26.6775 35 25.0401 34.64 23.3125 33.905C21.5849 33.17 19.8573 32.18 18.1447 30.935C16.4171 29.675 14.7797 28.28 13.2173 26.735C11.67 25.175 10.2729 23.54 9.02604 21.83C7.79419 20.12 6.8027 18.41 6.08162 16.715C5.36054 15.005 5 13.37 5 11.81C5 10.79 5.18027 9.815 5.54081 8.915C5.90135 8 6.47221 7.16 7.2684 6.41C8.22984 5.465 9.28142 5 10.3931 5C10.8137 5 11.2344 5.09 11.6099 5.27C12.0005 5.45 12.346 5.72 12.6164 6.11L16.1017 11.015C16.3721 11.39 16.5674 11.735 16.7026 12.065C16.8378 12.38 16.9129 12.695 16.9129 12.98C16.9129 13.34 16.8077 13.7 16.5974 14.045C16.4021 14.39 16.1167 14.75 15.7561 15.11L14.6144 16.295C14.4492 16.46 14.3741 16.655 14.3741 16.895C14.3741 17.015 14.3891 17.12 14.4191 17.24C14.4642 17.36 14.5093 17.45 14.5393 17.54C14.8097 18.035 15.2754 18.68 15.9364 19.46C16.6124 20.24 17.3335 21.035 18.1147 21.83C18.9259 22.625 19.7071 23.36 20.5033 24.035C21.2844 24.695 21.9304 25.145 22.4412 25.415C22.5163 25.445 22.6064 25.49 22.7116 25.535C22.8317 25.58 22.9519 25.595 23.0871 25.595C23.3425 25.595 23.5378 25.505 23.7031 25.34L24.8448 24.215C25.2203 23.84 25.5809 23.555 25.9264 23.375C26.2719 23.165 26.6174 23.06 26.993 23.06C27.2784 23.06 27.5789 23.12 27.9094 23.255C28.2399 23.39 28.5854 23.585 28.9609 23.84L33.9334 27.365C34.324 27.635 34.5944 27.95 34.7596 28.325C34.9099 28.7 35 29.075 35 29.495Z" stroke="url(#paint0_linear_103_9)" stroke-width="3" stroke-miterlimit="10"/>
<defs>
<linearGradient id="paint0_linear_103_9" x1="5" y1="28.5443" x2="56.2419" y2="26.5183" gradientUnits="userSpaceOnUse">
<stop stop-color="#FA6900"/>
<stop offset="1" stop-color="#FF00F5"/>
</linearGradient>
</defs>
</svg>
