<svg width="601" height="918" viewBox="0 0 601 918" fill="none" xmlns="http://www.w3.org/2000/svg">
<path d="M701.187 175.366C786.316 253.301 878.639 316.848 913.41 406.773C946.982 495.499 923.002 610.603 869.047 712.518C813.893 813.234 729.963 901.96 636.441 915.149C541.72 929.537 438.606 869.587 324.701 831.219C210.796 792.851 87.2994 774.866 33.3444 705.324C-19.4116 635.782 -2.62558 514.683 35.7424 415.166C74.1104 314.45 134.06 236.515 208.398 156.182C282.736 75.8486 370.263 -5.68338 452.994 0.311622C536.924 5.10762 616.058 97.4306 701.187 175.366Z" fill="url(#paint0_linear_1_5)" fill-opacity="0.1"/>
<defs>
<linearGradient id="paint0_linear_1_5" x1="0" y1="917.333" x2="917.262" y2="-11.4602" gradientUnits="userSpaceOnUse">
<stop stop-color="#F87537"/>
<stop offset="1" stop-color="#FBA81F"/>
</linearGradient>
</defs>
</svg>
