<svg width="402" height="561" viewBox="0 0 402 561" fill="none" xmlns="http://www.w3.org/2000/svg">
<path d="M-26.7749 453.754C-78.8311 406.093 -135.286 367.23 -156.549 312.236C-177.078 257.975 -162.414 187.583 -129.421 125.256C-95.6944 63.6628 -44.3714 9.40192 12.8172 1.33612C70.7389 -7.46295 133.793 29.1998 203.446 52.6639C273.098 76.1281 348.617 87.1269 381.61 129.656C413.87 172.184 403.606 246.243 380.144 307.103C356.682 368.697 320.022 416.358 274.565 465.486C229.107 514.614 175.585 564.476 124.995 560.809C73.6717 557.876 25.2814 501.416 -26.7749 453.754Z" fill="url(#paint0_linear_1_4)" fill-opacity="0.2"/>
<defs>
<linearGradient id="paint0_linear_1_4" x1="402" y1="0" x2="-158.957" y2="567.956" gradientUnits="userSpaceOnUse">
<stop stop-color="#F87537"/>
<stop offset="1" stop-color="#FBA81F"/>
</linearGradient>
</defs>
</svg>
