<svg width="62" height="62" viewBox="0 0 62 62" fill="none" xmlns="http://www.w3.org/2000/svg">
<path d="M31 9.25V2M31 9.25C29.0772 9.25 27.2331 10.0138 25.8735 11.3735C24.5138 12.7331 23.75 14.5772 23.75 16.5C23.75 18.4228 24.5138 20.2669 25.8735 21.6265C27.2331 22.9862 29.0772 23.75 31 23.75M31 9.25C32.9228 9.25 34.7669 10.0138 36.1265 11.3735C37.4862 12.7331 38.25 14.5772 38.25 16.5C38.25 18.4228 37.4862 20.2669 36.1265 21.6265C34.7669 22.9862 32.9228 23.75 31 23.75M9.25 52.75C11.1728 52.75 13.0169 51.9862 14.3765 50.6265C15.7362 49.2669 16.5 47.4228 16.5 45.5C16.5 43.5772 15.7362 41.7331 14.3765 40.3735C13.0169 39.0138 11.1728 38.25 9.25 38.25M9.25 52.75C7.32718 52.75 5.48311 51.9862 4.12348 50.6265C2.76384 49.2669 2 47.4228 2 45.5C2 43.5772 2.76384 41.7331 4.12348 40.3735C5.48311 39.0138 7.32718 38.25 9.25 38.25M9.25 52.75V60M9.25 38.25V2M31 23.75V60M52.75 52.75C54.6728 52.75 56.5169 51.9862 57.8765 50.6265C59.2362 49.2669 60 47.4228 60 45.5C60 43.5772 59.2362 41.7331 57.8765 40.3735C56.5169 39.0138 54.6728 38.25 52.75 38.25M52.75 52.75C50.8272 52.75 48.9831 51.9862 47.6235 50.6265C46.2638 49.2669 45.5 47.4228 45.5 45.5C45.5 43.5772 46.2638 41.7331 47.6235 40.3735C48.9831 39.0138 50.8272 38.25 52.75 38.25M52.75 52.75V60M52.75 38.25V2" stroke="#001C53" stroke-width="4" stroke-linecap="round" stroke-linejoin="round"/>
</svg>
