<svg width="156" height="131" viewBox="0 0 156 131" fill="none" xmlns="http://www.w3.org/2000/svg">
<path fill-rule="evenodd" clip-rule="evenodd" d="M145.928 2.05038C146.691 1.4399 148.356 0.751841 149.627 0.520025C150.899 0.289132 152.147 0.0563928 152.401 0.00374936C152.656 -0.0488941 153.592 0.459069 154.482 1.1342C156.791 2.88529 156.457 6.19998 153.541 10.4937C150.849 14.4558 150.311 15.1383 145.945 20.1468C144.405 21.9145 142.932 24.0295 142.671 24.8478C142.411 25.667 141.165 26.8889 139.902 27.564C138.639 28.2391 137.606 29.1664 137.606 29.6245C137.606 30.0835 136.981 31.0819 136.219 31.8438C134.637 33.4231 134.382 36.4053 135.756 37.2532C136.265 37.5672 136.681 38.3725 136.681 39.0421C136.681 39.7117 137.384 41.8692 138.243 43.8364C139.102 45.8036 139.837 48.0358 139.876 48.7978C139.914 49.5597 140.204 50.5987 140.519 51.1067C141.282 52.335 142.561 61.3639 142.547 65.422C142.521 73.1117 139.621 86.544 137.472 88.9268C137.037 89.4098 136.681 90.5199 136.681 91.3955C136.681 92.271 135.703 94.1625 134.507 95.5977C133.311 97.0339 132.166 98.6824 131.964 99.2624C131.543 100.465 123.927 108.83 123.253 108.83C123.01 108.83 122.007 109.557 121.027 110.446C117.713 113.449 112.87 116.735 111.251 117.078C110.742 117.185 109.648 117.886 108.82 118.634C107.992 119.383 106.12 120.081 104.659 120.185C103.198 120.289 101.454 120.894 100.782 121.529C100.11 122.164 97.4051 122.748 94.7714 122.828C92.1369 122.908 88.9423 123.092 87.6708 123.239C83.0713 123.769 81.5621 123.755 75.6494 123.122C72.3435 122.769 69.2226 122.147 68.714 121.74C68.2054 121.334 66.2292 120.71 64.3215 120.354C62.4147 119.998 60.8538 119.337 60.8538 118.886C60.8538 118.435 60.3082 118.065 59.6415 118.065C58.9738 118.065 57.6219 117.323 56.6361 116.415C55.6494 115.507 53.5207 114.222 51.9043 113.559C50.2879 112.897 48.7399 111.769 48.4652 111.054C47.5951 108.789 43.0242 109.605 39.5851 112.638C37.805 114.209 34.5796 116.325 32.4185 117.342C30.2574 118.36 28.4884 119.562 28.4884 120.014C28.4884 120.467 27.8993 120.836 27.1781 120.836C26.4577 120.836 25.7299 121.165 25.5598 121.567C24.882 123.174 7.53041 131.005 4.65729 131C0.784537 130.994 -1.35618 127.392 0.952856 124.765C1.7361 123.874 2.66263 122.209 3.01125 121.067C3.35987 119.924 4.03311 118.989 4.50749 118.989C4.98188 118.989 5.37025 118.52 5.37025 117.946C5.37025 117.373 6.7222 115.385 8.37561 113.529C10.029 111.673 12.2132 108.979 13.2304 107.542C15.4368 104.427 17.0708 102.659 18.6401 101.692C19.2754 101.3 20.7401 99.6282 21.8933 97.9778C23.0473 96.3273 24.4335 94.9762 24.9754 94.9762C25.5163 94.9762 26.7462 94.0711 27.707 92.9646C28.9424 91.5414 29.7414 91.2403 30.4377 91.9358C31.134 92.6312 30.0012 94.3019 26.5677 97.6425C23.8981 100.24 21.3412 102.365 20.8853 102.365C20.4294 102.365 20.2972 102.754 20.5912 103.228C21.159 104.146 16.9515 108.83 15.5598 108.83C15.1067 108.83 13.8001 110.492 12.6571 112.524C11.5132 114.556 10.0595 116.218 9.42517 116.218C8.79174 116.218 8.13058 117.153 7.9558 118.296C7.78103 119.44 7.09669 120.26 6.43551 120.12C5.74289 119.974 5.50805 120.312 5.88256 120.916C6.2395 121.494 6.06842 122.252 5.50249 122.602C4.93656 122.951 4.1977 124.614 3.86017 126.298C3.2628 129.281 3.30257 129.33 5.4202 128.198C7.16515 127.265 7.67004 127.265 7.98074 128.197C8.20175 128.859 8.61786 128.982 8.94987 128.483C9.26982 128.002 11.8202 126.474 14.6175 125.087C23.4616 120.701 34.0192 113.993 38.5956 109.852C40.3406 108.274 42.2132 106.97 42.7569 106.953C43.3016 106.937 42.6025 105.919 41.2034 104.688C39.8043 103.459 38.6604 102.144 38.6604 101.766C38.6604 101.06 34.022 93.9556 33.0205 93.129C31.9635 92.2562 27.5951 79.0474 28.0963 78.2384C28.3719 77.7932 28.2665 76.9094 27.8614 76.274C25.9001 73.1994 26.1054 54.6717 28.137 51.3893C28.4079 50.9515 28.7954 49.2854 28.9979 47.6867C29.2004 46.088 29.7599 44.5364 30.2407 44.24C30.7225 43.9426 31.3976 42.5775 31.7425 41.207C32.0865 39.8364 32.952 38.2303 33.665 37.6401C34.378 37.049 34.9615 36.0396 34.9615 35.3977C34.9615 34.7558 37.0421 32.0174 39.5851 29.3123C42.1281 26.6072 44.2087 24.1652 44.2087 23.8863C44.2087 23.6074 45.5061 22.3449 47.092 21.0805C48.6779 19.8162 51.1562 17.8249 52.5997 16.6557C54.0432 15.4865 55.4525 14.5583 55.7317 14.5943C57.0874 14.767 60.8538 13.4121 60.8538 12.7518C60.8538 12.0111 66.2144 10.4151 67.5581 10.7559C67.94 10.852 68.2516 10.4715 68.2516 9.90903C68.2516 9.34658 68.8249 9.10645 69.5259 9.37521C70.2268 9.64397 71.1858 9.47865 71.6564 9.00855C72.1271 8.53846 76.5584 8.0111 81.5029 7.83654C93.0135 7.43017 100.655 9.12769 110.663 14.3126C114.918 16.5162 118.765 18.32 119.215 18.32C119.664 18.32 121.799 16.6576 123.959 14.6257C126.119 12.5938 128.408 10.9314 129.047 10.9314C129.685 10.9314 130.208 10.5158 130.208 10.0079C130.208 9.49989 130.776 9.08428 131.47 9.08428C132.165 9.08428 133.725 8.31218 134.938 7.36829C136.151 6.42533 138.808 5.09262 140.842 4.4064C142.877 3.72112 145.165 2.66086 145.928 2.05038ZM152.619 5.89797C152.381 7.14294 151.818 8.16072 151.368 8.16072C150.92 8.16072 150.552 8.94483 150.552 9.90349C150.552 11.6029 147.735 15.0367 137.837 25.4065C135.166 28.204 132.982 30.8704 132.982 31.3331C132.982 31.7949 132.566 32.1735 132.057 32.1735C131.549 32.1735 131.133 31.5778 131.133 30.85C131.133 30.1223 130.3 29.2634 129.283 28.941C128.266 28.6187 127.434 27.8521 127.434 27.237C127.434 26.1962 124.272 22.9378 123.262 22.9378C123.013 22.9378 122.81 23.3922 122.81 23.9464C122.81 25.1932 126.449 29.9089 127.287 29.7464C127.621 29.6817 128.334 30.7004 128.87 32.0091C129.942 34.6274 129.065 35.672 116.333 46.9506C113.18 49.7444 108.585 54.0049 106.122 56.4172C103.66 58.8305 101.43 60.8042 101.169 60.8042C100.906 60.8042 98.9928 62.4666 96.9177 64.4985C94.8426 66.5303 92.8452 68.1927 92.479 68.1927C92.1138 68.1927 91.2948 69.0239 90.6596 70.0399C90.0243 71.0558 89.0681 71.887 88.5355 71.887C88.0028 71.887 86.4456 73.0646 85.0761 74.5035C83.7056 75.9433 81.1284 78.1054 79.3483 79.3088C77.5682 80.5121 75.4386 82.2438 74.6165 83.1572C73.7935 84.0697 72.6367 84.8169 72.0439 84.8169C71.4521 84.8169 70.728 85.4403 70.4358 86.2022C70.1427 86.9642 69.5175 87.5876 69.0469 87.5876C68.5752 87.5876 66.785 88.9905 65.0678 90.7056C63.3506 92.4206 60.6596 94.3925 59.0885 95.087C57.5165 95.7824 56.2302 96.6589 56.2302 97.0357C56.2302 97.4125 54.4612 98.8653 52.3001 100.265C50.139 101.664 48.0371 103.332 47.6302 103.972C46.2709 106.112 44.2531 105.17 41.7638 101.231C40.4063 99.0833 38.7639 96.7947 38.1139 96.1454C37.4638 95.4961 36.6472 94.0323 36.2996 92.8926C35.9519 91.7529 35.0364 90.1016 34.2652 89.2242C33.493 88.3468 32.7542 86.6446 32.6219 85.4422C32.4897 84.2397 31.9654 82.4636 31.4577 81.4967C28.7482 76.3377 28.1462 56.2196 30.6273 53.7426C30.9768 53.3935 31.2653 52.2418 31.2681 51.1833C31.2718 50.1249 31.896 48.0691 32.6552 46.6145C33.4153 45.1589 34.0368 43.5713 34.0368 43.0846C34.0368 42.5988 34.6646 41.5736 35.4322 40.807C36.1997 40.0405 36.5918 39.031 36.3023 38.5637C36.0138 38.0973 36.1165 37.7149 36.5307 37.7149C36.945 37.7149 37.8106 36.5272 38.4542 35.0745C40.1473 31.2555 51.3134 20.1671 53.4662 20.1671C53.9692 20.1671 54.3807 19.855 54.3807 19.4744C54.3816 18.5546 65.7724 13.3262 71.0258 11.8338C76.9339 10.1565 88.9063 10.0032 96.2408 11.5114C102.912 12.8829 109.864 15.5262 109.864 16.6908C109.864 17.0787 110.473 17.3964 111.219 17.3964C111.963 17.3964 114.351 18.6072 116.525 20.0877L120.476 22.779L123.261 19.7746C124.794 18.1223 127.711 16.0194 129.745 15.1013C131.78 14.1833 134.592 12.2457 135.996 10.7966C137.399 9.34658 138.855 8.14779 139.232 8.13208C139.609 8.11638 142.414 6.92683 145.466 5.48883C151.723 2.54172 153.245 2.62853 152.619 5.89797ZM136.628 45.3307C136.665 45.2014 135.608 43.0199 134.279 40.482C132.951 37.944 131.803 35.8946 131.729 35.9269C131.655 35.9583 127.745 39.8983 123.041 44.6814C118.337 49.4646 114.488 53.1644 114.488 52.903C114.488 52.6417 113.253 53.6899 111.745 55.2314C110.236 56.7719 108.762 58.0335 108.468 58.0335C108.174 58.0335 105.627 60.3193 102.807 63.1131C99.9878 65.9069 97.3792 68.1927 97.0102 68.1927C96.6412 68.1927 93.7875 70.6864 90.6697 73.7341C87.5506 76.7819 84.5638 79.2756 84.0311 79.2756C83.4985 79.2756 82.5432 80.1067 81.908 81.1226C81.2727 82.1385 80.2286 82.9697 79.5878 82.9697C78.9479 82.9697 78.4236 83.3854 78.4236 83.8933C78.4236 84.4013 77.9658 84.8169 77.4064 84.8169C76.8469 84.8169 74.93 86.2743 73.1471 88.0549C71.3633 89.8365 68.7001 92.0041 67.2289 92.8723C65.7567 93.7404 64.5527 94.7767 64.5527 95.1757C64.5527 95.5737 63.9285 95.8997 63.1656 95.8997C62.4027 95.8997 61.7785 96.3153 61.7785 96.8233C61.7785 97.3313 61.3624 97.7469 60.8538 97.7469C60.3452 97.7469 59.131 98.4737 58.1545 99.3631C57.1789 100.253 54.5194 102.395 52.2455 104.126L48.1111 107.273L50.5523 109.266C53.9738 112.059 60.2555 115.789 61.085 115.52C61.4669 115.396 61.7785 115.694 61.7785 116.181C61.7785 116.669 63.443 117.5 65.4774 118.028C67.5118 118.557 70.937 119.45 73.0888 120.013C78.9627 121.552 95.8173 121.067 99.2295 119.262C100.247 118.724 102.402 118 104.021 117.653C105.638 117.307 107.458 116.426 108.063 115.697C108.67 114.968 109.865 114.371 110.719 114.371C112.621 114.371 119.119 109.683 123.895 104.865C125.841 102.901 127.434 101.141 127.434 100.953C127.434 100.766 128.508 99.4545 129.821 98.0396C131.134 96.6247 133.029 93.5908 134.033 91.2967C135.036 89.0025 136.25 86.2946 136.729 85.2787C137.209 84.2627 137.78 82.3925 137.998 81.1226C138.215 79.8527 138.473 78.606 138.571 78.352C138.669 78.098 138.679 77.5162 138.594 77.0599C138.508 76.6028 138.725 75.5637 139.075 74.751C139.657 73.3998 140.22 71.0105 140.511 68.6545C140.8 66.3225 139.342 54.5812 138.397 51.6267C137.042 47.3884 136.545 45.6225 136.628 45.3307Z" fill="#F5BD33"/>
</svg>
