<svg width="40" height="40" viewBox="0 0 40 40" fill="none" xmlns="http://www.w3.org/2000/svg">
<path d="M13.333 4.99967H14.9997C11.7497 14.733 11.7497 25.2663 14.9997 34.9997H13.333M24.9997 4.99967C28.2497 14.733 28.2497 25.2663 24.9997 34.9997M4.99967 26.6663V24.9997C14.733 28.2497 25.2663 28.2497 34.9997 24.9997V26.6663M4.99967 14.9997C14.733 11.7497 25.2663 11.7497 34.9997 14.9997M36.6663 19.9997C36.6663 29.2044 29.2044 36.6663 19.9997 36.6663C10.7949 36.6663 3.33301 29.2044 3.33301 19.9997C3.33301 10.7949 10.7949 3.33301 19.9997 3.33301C29.2044 3.33301 36.6663 10.7949 36.6663 19.9997Z" stroke="url(#paint0_linear_103_28)" stroke-width="3" stroke-linecap="round" stroke-linejoin="round"/>
<defs>
<linearGradient id="paint0_linear_103_28" x1="3.33301" y1="29.4933" x2="60.2685" y2="27.2423" gradientUnits="userSpaceOnUse">
<stop stop-color="#FA6900"/>
<stop offset="1" stop-color="#FF00F5"/>
</linearGradient>
</defs>
</svg>
