<svg width="123" height="123" viewBox="0 0 123 123" fill="none" xmlns="http://www.w3.org/2000/svg">
<g opacity="0.5" clip-path="url(#clip0_1_163)">
<path d="M61.468 61.468L53.5144 0L69.4212 1.45625e-06L61.468 61.468Z" fill="#F5BD33"/>
<path d="M61.468 61.468L53.5144 122.936H69.4212L61.468 61.468Z" fill="#F5BD33"/>
<path d="M61.468 61.468L122.936 53.5144V69.4212L61.468 61.468Z" fill="#F5BD33"/>
<path d="M61.468 61.468L0 53.5144L7.60947e-07 69.4212L61.468 61.468Z" fill="#F5BD33"/>
<path d="M61.468 61.468L85.314 4.25851L99.0896 12.2118L61.468 61.468Z" fill="#F5BD33"/>
<path d="M61.468 61.468L23.8462 110.724L37.6217 118.677L61.468 61.468Z" fill="#F5BD33"/>
<path d="M61.4677 61.468L118.677 85.314L110.724 99.0896L61.4677 61.468Z" fill="#F5BD33"/>
<path d="M61.4676 61.468L12.2117 23.8462L4.25842 37.6217L61.4676 61.468Z" fill="#F5BD33"/>
<path d="M61.4676 61.468L37.6216 4.25851L23.8461 12.2118L61.4676 61.468Z" fill="#F5BD33"/>
<path d="M61.4677 61.468L99.0897 110.724L85.3141 118.677L61.4677 61.468Z" fill="#F5BD33"/>
<path d="M61.4676 61.468L4.25842 85.314L12.2117 99.0896L61.4676 61.468Z" fill="#F5BD33"/>
<path d="M61.4677 61.468L110.724 23.8462L118.677 37.6217L61.4677 61.468Z" fill="#F5BD33"/>
<path d="M61.4677 61.468L69.6947 0.0360413L85.059 4.15297L61.4677 61.468Z" fill="white"/>
<path d="M61.4676 61.468L37.8765 118.783L53.241 122.9L61.4676 61.468Z" fill="white"/>
<path d="M61.468 61.468L122.9 69.6947L118.783 85.0594L61.468 61.468Z" fill="white"/>
<path d="M61.468 61.468L4.15293 37.8766L0.0360107 53.2414L61.468 61.468Z" fill="white"/>
<path d="M61.468 61.468L99.3081 12.3797L110.556 23.6274L61.468 61.468Z" fill="white"/>
<path d="M61.468 61.468L12.3796 99.3081L23.6273 110.556L61.468 61.468Z" fill="white"/>
<path d="M61.4677 61.468L110.556 99.3081L99.3082 110.556L61.4677 61.468Z" fill="white"/>
<path d="M61.4676 61.468L23.6273 12.3797L12.3796 23.6274L61.4676 61.468Z" fill="white"/>
<path d="M61.4677 61.468L53.241 0.0360413L37.8765 4.15297L61.4677 61.468Z" fill="white"/>
<path d="M61.4677 61.468L85.059 118.783L69.6947 122.9L61.4677 61.468Z" fill="white"/>
<path d="M61.4676 61.468L0.0360107 69.6947L4.15295 85.0594L61.4676 61.468Z" fill="white"/>
<path d="M61.4677 61.468L118.783 37.8766L122.9 53.2414L61.4677 61.468Z" fill="white"/>
</g>
<defs>
<clipPath id="clip0_1_163">
<rect width="123" height="123" fill="white"/>
</clipPath>
</defs>
</svg>
