<svg width="164" height="165" viewBox="0 0 164 165" fill="none" xmlns="http://www.w3.org/2000/svg">
<path fill-rule="evenodd" clip-rule="evenodd" d="M1.57117 105.721C2.46631 102.917 2.96019 99.886 2.67007 98.9877C2.37995 98.0894 3.95583 95.2204 6.17251 92.6128C9.7427 88.4129 10.5722 88.0791 13.4204 89.6937C17.3362 91.9118 17.2594 92.9308 12.8838 96.9295C11.0131 98.6393 9.95193 100.438 10.5264 100.927C11.0997 101.414 10.8431 102.685 9.95626 103.748C8.09396 105.979 7.96977 117.643 9.79285 119.193C10.4671 119.766 10.6427 120.677 10.1841 121.216C8.88186 122.748 14.3079 134.22 16.7373 135.074C17.9321 135.495 18.7593 136.823 18.5759 138.027C18.3926 139.231 20.0633 141.913 22.2882 143.988C24.514 146.061 26.8044 148.706 27.3778 149.864C28.7964 152.722 33.5703 155.755 38.7045 157.057C43.4969 158.273 50.668 156.64 51.0321 154.25C51.164 153.381 52.971 152.171 55.0481 151.56C59.7127 150.187 61.1287 145.696 56.9137 145.647C52.484 145.595 34.7258 125.669 36.8651 123.153C37.3013 122.639 36.7433 121.899 35.6233 121.506C34.5053 121.112 33.7118 119.986 33.862 119.003C34.0112 118.021 32.9303 116.194 31.458 114.942C29.9857 113.691 28.6343 110.842 28.4538 108.611C28.2733 106.379 27.6378 104.139 27.0414 103.632C24.3589 101.352 23.4834 87.7662 25.9344 86.4269C26.9689 85.8631 27.2696 84.9362 26.6019 84.3687C25.9343 83.8012 26.6468 81.8567 28.1849 80.0474C29.7229 78.2381 31.5043 77.2022 32.1423 77.7446C32.7803 78.287 33.3982 78.1133 33.5126 77.3567C33.6281 76.6011 35.508 75.9758 37.6911 75.9691C41.8264 75.954 47.8489 80.3368 53.0139 87.119C58.8588 94.7964 66.2633 114.937 65.827 121.975C65.7212 123.708 66.4253 127.06 67.3945 129.426C68.3627 131.79 68.6127 135.019 67.9495 136.601C67.2863 138.183 67.3981 139.742 68.199 140.064C71.0788 141.224 81.9608 136.032 85.6549 131.735C90.9716 125.552 90.1766 121.706 81.822 113.229C74.8385 106.14 68.8107 97.2494 66.9182 91.2449C66.3425 89.4163 64.9661 86.5235 63.8612 84.8154C62.7553 83.1084 61.9253 79.7639 62.0155 77.383C62.1067 75.003 61.3139 72.3191 60.2527 71.417C59.1926 70.5159 58.8438 67.8827 59.4791 65.5648C60.1144 63.2468 60.9246 60.1389 61.2794 58.6573C62.1881 54.8604 68.7161 51.4708 70.1303 54.0614C70.7333 55.1671 71.6922 55.5252 72.259 54.8585C73.5034 53.3946 82.9924 63.1877 86.0287 69.0707C87.1325 71.2066 88.5217 73.449 89.1168 74.053C89.7118 74.6571 90.3303 76.7508 90.4915 78.7049C90.6526 80.6591 91.488 82.8577 92.3485 83.5893C93.2102 84.3218 94.1321 86.594 94.3974 88.6367C95.2332 95.0689 95.8786 97.924 96.646 98.5764C97.7335 99.5008 97.9677 109.033 96.9321 110.252C96.4464 110.823 97.4954 112.521 99.2637 114.024C101.515 115.939 103.245 116.277 105.038 115.155C106.446 114.274 107.98 113.878 108.447 114.275C110.569 116.079 118.704 108.781 121.873 102.232C124.919 95.9364 124.892 95.5128 121.235 92.404C119.132 90.6166 116.636 89.0368 115.688 88.8922C114.738 88.7478 112.745 86.6696 111.258 84.2728C109.772 81.8779 106.105 77.6081 103.109 74.7855C97.9792 69.9545 94.0788 61.9202 93.4107 54.8108C93.2737 53.3569 92.7555 51.8227 92.2589 51.4005C90.4315 49.847 90.0349 38.5994 91.6902 35.2482C94.4714 29.6173 101.737 26.0292 105.75 28.3037C107.641 29.3752 109.646 31.4136 110.204 32.8343C110.84 34.4518 111.828 35.218 112.851 34.8879C113.893 34.5501 114.81 35.6161 115.39 37.8435C115.89 39.759 117.122 41.617 118.129 41.9702C119.135 42.3245 121.055 46.146 122.394 50.4619C123.734 54.7777 125.72 59.0656 126.809 59.991C127.896 60.9154 128.131 62.4425 127.332 63.3822C126.534 64.322 126.594 65.2001 127.465 65.3325C129.697 65.6719 132.831 78.5494 131.418 81.5818C129.278 86.1811 133.799 85.6233 142.797 80.1774C148.834 76.5231 151.641 74.1279 151.527 72.7263C151.435 71.5903 152.048 69.852 152.89 68.8618C154.521 66.9429 153.944 50.9453 152.188 49.4533C151.613 48.9641 151.487 47.5818 151.909 46.3827C152.331 45.1826 152.03 43.6521 151.24 42.9802C150.451 42.3093 149.988 41.2116 150.213 40.539C150.437 39.8684 149.041 35.6786 147.111 31.229C142.195 19.8959 139.7 12.3202 140.325 10.6197C140.628 9.79369 139.86 9.42934 138.539 9.77441C136.743 10.2428 136.359 9.96466 136.829 8.53805C137.206 7.39982 136.211 6.09114 134.222 5.10915C131.628 3.82923 131.365 3.10015 132.863 1.33798C134.91 -1.07006 140.833 0.838115 140.387 3.7634C140.241 4.72678 140.459 5.75137 140.873 6.03839C143.181 7.64574 146.963 13.6316 146.221 14.5044C145.742 15.0681 146.048 15.6343 146.901 15.7642C147.753 15.894 149.85 20.1739 151.561 25.2774C153.272 30.3798 155.541 35.295 156.603 36.2C159.086 38.318 161.013 43.5468 161.42 49.2726C161.597 51.7595 162.216 54.1992 162.797 54.6931C163.895 55.6269 163.833 69.3181 162.724 70.6219C162.377 71.0309 162.201 72.7123 162.335 74.3594C162.725 79.1811 152.442 88.8908 142.537 93.0494C137.975 94.9664 133.834 96.1877 133.336 95.7646C132.838 95.3405 132.116 96.4445 131.732 98.2184C131.349 99.9911 130.387 101.652 129.596 101.907C128.804 102.163 128.576 103.065 129.088 103.91C130.434 106.135 114.417 120.155 110.133 120.503C108.342 120.648 106.293 121.455 105.579 122.295C104.864 123.136 102.789 123.5 100.965 123.106C98.7083 122.617 97.3992 123.182 96.8594 124.877C93.2016 136.373 84.2505 144.535 71.3927 148.095C66.5848 149.425 65.1588 150.436 64.6279 152.885C63.6716 157.304 53.0026 163.477 44.5762 164.485C39.7343 165.067 36.0855 164.321 31.4543 161.803C27.9252 159.885 24.867 157.782 24.6572 157.132C24.4462 156.48 22.5734 154.151 20.4949 151.956C8.57076 139.358 2.90557 128.968 2.25742 118.507C2.05107 115.187 1.447 112.098 0.913119 111.644C0.380336 111.192 0.676195 108.527 1.57117 105.721ZM37.4277 80.7264C42.1397 80.3439 49.7308 88.7086 55.4186 100.552C56.6006 103.011 58.0142 105.405 58.5602 105.869C59.1072 106.334 59.9 112.108 60.3231 118.701C60.7462 125.295 61.7199 131.223 62.4873 131.875C63.976 133.14 62.046 138.534 60.2059 138.251C56.2808 137.647 45.2747 126.453 44.3497 122.123C44.141 121.147 42.5578 118.511 40.8315 116.265C37.5969 112.057 31.0792 96.1009 31.7399 94.0085C31.9437 93.36 31.4468 92.2651 30.6344 91.5746C29.2871 90.4292 30.279 87.5719 33.6978 82.7504C34.4107 81.7451 36.0889 80.8351 37.4277 80.7264ZM72.3058 61.759C72.2715 61.3483 70.9825 61.1141 69.4429 61.2391C65.876 61.5297 65.2515 62.3021 66.5973 64.7666C67.1916 65.8536 67.2022 67.876 66.6211 69.2616C66.0398 70.6451 66.5216 73.1174 67.6892 74.7541C68.8577 76.3896 69.1925 78.4594 68.4337 79.352C67.194 80.8104 67.9418 82.5587 70.4745 84.1224C70.9699 84.4282 72.5715 87.8847 74.033 91.8037C77.8839 102.129 88.777 112.407 90.544 107.383C90.9399 106.257 90.7757 104.92 90.1771 104.411C89.5797 103.903 88.9667 100.845 88.8149 97.6185C88.4513 89.8177 81.7382 73.2247 76.5396 67.2773C74.2447 64.6521 72.34 62.1697 72.3058 61.759ZM108.17 41.1319C111.55 44.7063 113.545 47.9583 113.255 49.4279C112.993 50.7559 113.914 52.8086 115.303 53.9893C116.691 55.1691 118.466 58.7788 119.249 62.0108C120.031 65.2428 121.494 70.9165 122.501 74.6192L124.333 81.3505L120.496 79.1994C116.868 77.1653 110.687 70.2788 108.372 65.6929C107.792 64.5425 106.862 63.3573 106.305 63.0595C104.736 62.221 101.858 54.4845 101.896 51.2175C101.915 49.6071 101.021 47.5153 99.9074 46.5685C97.8048 44.7811 98.8139 36.4785 101.229 35.6985C101.988 35.4532 105.11 37.898 108.17 41.1319Z" fill="#F4ADB3"/>
</svg>
